<svg width="172" height="24" viewBox="0 0 172 24" fill="none" xmlns="http://www.w3.org/2000/svg">
<path d="M0 22.8812V5.28345L11.059 0L22.1047 5.28345V22.8812H18.5956V11.2905H15.8176V22.8812H12.3882V11.2905H9.61018V22.8812H6.26058V11.2905H3.41606V22.8812H0Z" fill="black"/>
<path d="M62.9423 8.8517H61.0987V2.00222H58.5486V0.259155H65.4924V2.00222H62.9423V8.8517Z" fill="black"/>
<path d="M67.6291 8.8517H69.4727V5.40242H72.8734V8.8517H74.717V0.259155H72.8734V3.65936H69.4727V0.259155H67.6291V8.8517Z" fill="black"/>
<path d="M83.8254 8.8517H77.444V0.259155H83.7658V1.94084H79.2758V3.68391H83.227V5.3656H79.2758V7.17002H83.8254V8.8517Z" fill="black"/>
<path d="M94.4183 8.99903C96.0345 8.99903 96.9921 8.40981 97.8545 7.46467L96.6808 6.2494C96.0227 6.86319 95.4356 7.25595 94.478 7.25595C93.0414 7.25595 92.0473 6.02848 92.0473 4.55545V4.5309C92.0473 3.05788 93.0651 1.85493 94.478 1.85493C95.3162 1.85493 95.9749 2.22318 96.6211 2.82466L97.7943 1.43757C97.0163 0.651964 96.0706 0.111862 94.4899 0.111862C91.9161 0.111862 90.1198 2.1127 90.1198 4.55545V4.58C90.1198 7.04728 91.9516 8.99903 94.4183 8.99903Z" fill="black"/>
<path d="M106.071 8.8517H100.049V0.259155H101.892V7.13319H106.071V8.8517Z" fill="black"/>
<path d="M108.18 8.8517H114.562V7.17002H110.012V5.3656H113.963V3.68391H110.012V1.94084H114.501V0.259155H108.18V8.8517Z" fill="black"/>
<path d="M121.217 8.9131H119.589L116.201 0.259155H118.236L120.427 6.31079L122.618 0.259155H124.606L121.217 8.9131Z" fill="black"/>
<path d="M126.617 8.8517H132.999V7.17002H128.449V5.3656H132.4V3.68391H128.449V1.94084H132.939V0.259155H126.617V8.8517Z" fill="black"/>
<path d="M141.379 8.8517H135.357V0.259155H137.2V7.13319H141.379V8.8517Z" fill="black"/>
<path fill-rule="evenodd" clip-rule="evenodd" d="M142.769 8.85171H144.649L145.415 6.92453H148.959L149.725 8.85171H151.653L148.061 0.197784H146.361L142.769 8.85171ZM146.074 5.25513L147.187 2.46868L148.301 5.25513H146.074Z" fill="black"/>
<path d="M155.485 8.8517H153.665V0.259155H155.365L159.292 5.54974V0.259155H161.112V8.8517H159.544L155.485 3.3893V8.8517Z" fill="black"/>
<path fill-rule="evenodd" clip-rule="evenodd" d="M163.842 8.8517H167.111C169.745 8.8517 171.565 6.97362 171.565 4.55544V4.53089C171.565 2.11269 169.745 0.259155 167.111 0.259155H163.842V8.8517ZM165.686 7.1455V1.96539H167.111C168.62 1.96539 169.637 3.03333 169.637 4.55544V4.57999C169.637 6.10213 168.62 7.1455 167.111 7.1455H165.686Z" fill="black"/>
<path d="M60.9552 22.8804H59.147V14.2878H61.1347L63.3375 17.9213L65.5403 14.2878H67.528V22.8804H65.6962V17.2707L63.3375 20.941H63.2897L60.9552 17.3075V22.8804Z" fill="black"/>
<path d="M73.7557 23.0155C76.0068 23.0155 77.4316 21.7388 77.4316 19.1365V14.2878H75.5875V19.2101C75.5875 20.5727 74.9052 21.2724 73.7799 21.2724C72.6546 21.2724 71.9717 20.5481 71.9717 19.1488V14.2878H70.1281V19.1979C70.1281 21.7266 71.505 23.0155 73.7557 23.0155Z" fill="black"/>
<path d="M86.0863 20.3395C86.0863 22.0457 84.8169 23.0031 83.0093 23.0031C81.7399 23.0031 80.4592 22.549 79.4532 21.6284L80.5425 20.2904C81.2968 20.9287 82.0872 21.3338 83.0453 21.3338C83.7996 21.3338 84.2545 21.0269 84.2545 20.5236V20.4991C84.2545 20.0203 83.9669 19.7748 82.5663 19.4065C80.878 18.9646 79.7887 18.4859 79.7887 16.7797V16.7552C79.7887 15.1962 81.0097 14.1651 82.7216 14.1651C83.9432 14.1651 84.9846 14.5579 85.8347 15.2576L84.8771 16.6815C84.1346 16.1537 83.4045 15.8345 82.698 15.8345C81.9915 15.8345 81.6205 16.1659 81.6205 16.5833V16.6078C81.6205 17.1725 81.9797 17.3566 83.4281 17.7372C85.1282 18.1913 86.0863 18.8174 86.0863 20.3149V20.3395Z" fill="black"/>
<path d="M88.4047 22.8804H94.7861V21.1987H90.2364V19.3943H94.1877V17.7126H90.2364V15.9695H94.7264V14.2878H88.4047V22.8804Z" fill="black"/>
<path d="M104.316 19.1365C104.316 21.7388 102.891 23.0155 100.64 23.0155C98.3889 23.0155 97.012 21.7266 97.012 19.1979V14.2878H98.8562V19.1488C98.8562 20.5481 99.5385 21.2724 100.664 21.2724C101.79 21.2724 102.472 20.5727 102.472 19.2101V14.2878H104.316V19.1365Z" fill="black"/>
<path d="M106.912 22.8804H108.72V17.3075L111.054 20.941H111.102L113.461 17.2707V22.8804H115.293V14.2878H113.306L111.102 17.9213L108.9 14.2878H106.912V22.8804Z" fill="black"/>
<path fill-rule="evenodd" clip-rule="evenodd" d="M130.869 18.5841C130.869 21.0269 128.99 23.0277 126.404 23.0277C123.817 23.0277 121.961 21.0514 121.961 18.6087V18.5841C121.961 16.1414 123.841 14.1405 126.427 14.1405C129.013 14.1405 130.869 16.1168 130.869 18.5596V18.5841ZM123.889 18.5841C123.889 20.0572 124.943 21.2846 126.427 21.2846C127.912 21.2846 128.942 20.0817 128.942 18.6087V18.5841C128.942 17.1111 127.888 15.8836 126.404 15.8836C124.919 15.8836 123.889 17.0866 123.889 18.5596V18.5841Z" fill="black"/>
<path d="M133.223 22.8804H135.067V19.5539H139.066V17.8354H135.067V16.0064H139.605V14.2878H133.223V22.8804Z" fill="black"/>
<path fill-rule="evenodd" clip-rule="evenodd" d="M147.268 22.8804H145.388L148.98 14.2265H150.68L154.272 22.8804H152.344L151.578 20.9532H148.035L147.268 22.8804ZM149.806 16.4973L148.693 19.2838H150.92L149.806 16.4973Z" fill="black"/>
<path fill-rule="evenodd" clip-rule="evenodd" d="M156.284 22.8804H158.128V20.1308H159.576L161.373 22.8804H163.528L161.48 19.8117C162.546 19.4065 163.276 18.5351 163.276 17.148V17.1234C163.276 16.3132 163.025 15.6381 162.558 15.1594C162.007 14.5947 161.181 14.2878 160.115 14.2878H156.284V22.8804ZM158.128 18.4614V15.9941H159.96C160.858 15.9941 161.408 16.4114 161.408 17.2216V17.2461C161.408 17.9704 160.894 18.4614 159.996 18.4614H158.128Z" fill="black"/>
<path d="M169.45 22.8804H167.606V16.0309H165.056V14.2878H172V16.0309H169.45V22.8804Z" fill="black"/>
<path d="M26.6896 0.25885H48.8682V3.77548H26.6896V0.25885Z" fill="black"/>
<path d="M26.6896 6.64457H48.8682V10.1612H26.6896V6.64457Z" fill="black"/>
<path d="M26.6896 13.0305H48.8682V16.5472H26.6896V13.0305Z" fill="black"/>
<path d="M26.6896 19.4163H48.8682V22.9329H26.6896V19.4163Z" fill="black"/>
</svg>
