<svg width="32" height="32" viewBox="0 0 32 32" fill="none" xmlns="http://www.w3.org/2000/svg">
<path d="M16.0001 0.789948C7.16461 0.789948 0 7.9533 0 16.79C0 23.8594 4.5845 29.8568 10.9419 31.9725C11.7415 32.1206 12.0351 31.6254 12.0351 31.2028C12.0351 30.8213 12.0202 29.5608 12.0134 28.2239C7.56202 29.1918 6.62276 26.3361 6.62276 26.3361C5.89494 24.4867 4.84626 23.995 4.84626 23.995C3.39464 23.0019 4.95568 23.0223 4.95568 23.0223C6.5624 23.1352 7.40843 24.6711 7.40843 24.6711C8.83545 27.1172 11.1514 26.41 12.0645 26.0013C12.208 24.967 12.6227 24.2613 13.0803 23.8618C9.5265 23.4571 5.79054 22.0851 5.79054 15.9544C5.79054 14.2076 6.41559 12.7802 7.43917 11.6598C7.27303 11.2567 6.72541 9.62942 7.59415 7.42551C7.59415 7.42551 8.93772 6.99547 11.9953 9.06561C13.2715 8.71099 14.6403 8.5333 16.0001 8.52727C17.3598 8.5333 18.7296 8.71099 20.0083 9.06561C23.0623 6.99547 24.404 7.42551 24.404 7.42551C25.2748 9.62942 24.727 11.2567 24.5608 11.6598C25.5867 12.7802 26.2075 14.2075 26.2075 15.9544C26.2075 22.0997 22.4645 23.4529 18.9017 23.849C19.4755 24.3455 19.9869 25.3193 19.9869 26.8119C19.9869 28.9527 19.9683 30.6758 19.9683 31.2028C19.9683 31.6286 20.2563 32.1275 21.0674 31.9704C27.4213 29.8523 32 23.857 32 16.79C32 7.9533 24.8364 0.789948 16.0001 0.789948Z" fill="#161614"/>
<path d="M5.99252 23.5824C5.95739 23.6619 5.83215 23.6857 5.71833 23.6312C5.60226 23.579 5.53701 23.4706 5.57465 23.3908C5.60916 23.309 5.7344 23.2862 5.85022 23.3411C5.96655 23.3932 6.0328 23.5026 5.99252 23.5824V23.5824ZM6.77957 24.2846C6.70327 24.3554 6.55407 24.3225 6.4528 24.2107C6.34815 24.0992 6.32857 23.9501 6.406 23.8782C6.48468 23.8076 6.62936 23.8406 6.73427 23.9522C6.83892 24.065 6.85925 24.2132 6.77944 24.2848L6.77957 24.2846ZM7.31954 25.1831C7.22141 25.2513 7.06103 25.1874 6.96203 25.0451C6.86402 24.9029 6.86402 24.7323 6.96416 24.6639C7.06354 24.5955 7.22141 24.657 7.32179 24.7981C7.41967 24.9428 7.41967 25.1135 7.31941 25.1833L7.31954 25.1831ZM8.23257 26.2238C8.14486 26.3204 7.95813 26.2946 7.82135 26.1625C7.68156 26.0335 7.64254 25.8505 7.7305 25.7537C7.81922 25.6568 8.00707 25.6841 8.14486 25.8149C8.28377 25.9437 8.32618 26.1282 8.2327 26.2238H8.23257ZM9.41264 26.5751C9.37412 26.7004 9.19417 26.7573 9.01297 26.7041C8.83202 26.6493 8.71356 26.5025 8.75008 26.3759C8.78772 26.2498 8.96842 26.1904 9.151 26.2474C9.3317 26.302 9.45041 26.4476 9.41277 26.5751H9.41264ZM10.7558 26.7241C10.7604 26.8561 10.6066 26.9655 10.4164 26.9679C10.225 26.9721 10.0703 26.8653 10.0683 26.7355C10.0683 26.6022 10.2185 26.4938 10.4098 26.4907C10.6 26.4869 10.7558 26.593 10.7558 26.7241V26.7241ZM12.0752 26.6735C12.098 26.8023 11.9658 26.9345 11.7769 26.9697C11.5912 27.0035 11.4193 26.9241 11.3956 26.7965C11.3725 26.6645 11.5073 26.5324 11.6926 26.4981C11.8818 26.4652 12.0511 26.5426 12.0752 26.6735" fill="#161614"/>
</svg>
