<svg width="181" height="43" viewBox="0 0 181 43" fill="none" xmlns="http://www.w3.org/2000/svg">
<path d="M111.82 14.5599H111.966L113.567 18.394C113.616 18.5396 113.713 18.6367 113.907 18.6367H114.101V18.7823H112.451V18.6367H112.694C112.936 18.5881 112.985 18.4911 112.888 18.3455L112.499 17.3263H111.043L110.752 18.1028C110.558 18.5881 110.752 18.6367 110.995 18.6852H111.141V18.7823H109.83V18.6367H109.976C110.218 18.5881 110.315 18.4911 110.51 18.1028L111.82 14.5599ZM111.141 16.938H112.305L111.723 15.4335L111.141 16.938Z" fill="black"/>
<path d="M115.169 16.1615V16.8895C115.266 16.4527 115.557 16.0644 115.994 16.0644C116.236 16.0644 116.382 16.21 116.382 16.4041C116.382 16.5497 116.236 16.6468 116.139 16.6468C115.897 16.6468 115.8 16.4041 115.751 16.4041C115.606 16.4041 115.363 16.6468 115.266 17.0351V17.5204C115.266 17.9572 115.266 18.394 115.266 18.394C115.266 18.5396 115.314 18.5881 115.46 18.5881L115.751 18.6367V18.7823H114.295V18.6367L114.538 18.5881C114.732 18.5396 114.732 18.4911 114.78 18.394C114.78 18.394 114.78 17.8601 114.78 17.5204V16.5983C114.78 16.4527 114.732 16.4041 114.635 16.3556L114.344 16.3071V16.1615H115.169Z" fill="black"/>
<path d="M117.45 15.5306V16.2586H118.226V16.4527H117.45V17.2292C117.45 17.9572 117.45 18.1513 117.45 18.1513C117.45 18.4425 117.595 18.5881 117.79 18.5881C117.935 18.5881 118.129 18.4911 118.226 18.394L118.275 18.4911C117.984 18.8308 117.741 18.8793 117.498 18.8793C117.159 18.8793 116.867 18.6852 116.867 18.2484V16.4527L116.479 16.4041V16.2586H116.916L117.304 15.5306H117.45Z" fill="black"/>
<path d="M119.537 16.7439C119.731 16.3556 120.071 16.1129 120.459 16.1129C120.993 16.1129 121.284 16.4527 121.284 17.1321V17.5689C121.284 17.8601 121.284 18.4425 121.284 18.4425C121.284 18.5396 121.332 18.5881 121.527 18.6367L121.769 18.6852V18.7823H120.362V18.6367L120.604 18.5881C120.799 18.5396 120.799 18.4911 120.799 18.394C120.799 18.394 120.799 17.8601 120.799 17.5204V17.1807C120.799 16.6953 120.702 16.4041 120.216 16.4041C119.974 16.4041 119.682 16.5497 119.537 16.8895V17.5689C119.537 18.0057 119.537 18.4425 119.537 18.4425C119.537 18.5881 119.585 18.6367 119.731 18.6367L119.974 18.6852V18.7823H118.566V18.6367L118.809 18.5881C119.003 18.5396 119.003 18.4911 119.003 18.394C119.003 18.394 119.003 17.8116 119.003 17.5204V15.7732C119.003 15.2394 119.003 14.9967 119.003 14.9482C119.003 14.8026 118.954 14.754 118.857 14.7055L118.566 14.657V14.5114L119.537 14.4143C119.537 14.4143 119.537 15.1908 119.537 15.6761V16.7439Z" fill="black"/>
<path d="M124.099 18.1513C123.905 18.5881 123.613 18.8308 123.225 18.8308C122.546 18.8308 122.4 18.2969 122.4 17.7145V16.5983C122.4 16.4527 122.352 16.4041 122.255 16.3556L121.963 16.3071V16.1615L122.934 16.1129V17.6175C122.934 18.1028 123.031 18.4425 123.468 18.4425C123.711 18.4425 124.002 18.2969 124.147 17.8601V16.5497C124.147 16.4041 124.099 16.3556 124.002 16.3071L123.711 16.2585V16.1129L124.681 16.0644V18.2969C124.681 18.394 124.73 18.4425 124.924 18.4911L125.167 18.5396V18.7823H124.244L124.099 18.1513Z" fill="black"/>
<path d="M126.283 16.1615V16.8895C126.38 16.4527 126.671 16.0644 127.108 16.0644C127.351 16.0644 127.496 16.21 127.496 16.4041C127.496 16.5497 127.351 16.6468 127.253 16.6468C127.011 16.6468 126.914 16.4041 126.865 16.4041C126.72 16.4041 126.477 16.6468 126.38 17.0351V17.5204C126.38 17.9572 126.38 18.394 126.38 18.394C126.38 18.5396 126.428 18.5881 126.574 18.5881L126.865 18.6367V18.7823H125.409V18.6367L125.652 18.5881C125.846 18.5396 125.846 18.4911 125.895 18.394C125.895 18.394 125.895 17.8601 125.895 17.5204V16.5983C125.895 16.4527 125.846 16.4041 125.749 16.3556H125.361V16.21L126.283 16.1615Z" fill="black"/>
<path d="M133.854 18.6367L134.145 18.6852V18.7823H132.446V18.6367L132.689 18.5881C132.835 18.5396 132.98 18.4911 132.98 18.3455C132.98 18.3455 132.98 17.9087 132.932 17.3263L132.835 15.1423L131.476 18.7823H131.379L129.874 15.0938L129.729 18.1028C129.729 18.3455 129.777 18.5881 130.311 18.5881V18.7823H128.855V18.6367C129.292 18.6367 129.486 18.394 129.486 18.1513L129.68 15.0938C129.68 14.8996 129.583 14.8026 129.437 14.8026H129.146V14.657H130.408L131.67 17.8116L132.883 14.657H134.097V14.8026H133.805C133.66 14.8026 133.514 14.8996 133.563 15.1423L133.66 17.3748C133.66 17.8116 133.708 18.394 133.708 18.394C133.611 18.5396 133.708 18.5881 133.854 18.6367Z" fill="black"/>
<path d="M135.164 18.0543C135.407 18.0543 135.601 18.2484 135.601 18.4425C135.601 18.6852 135.407 18.8793 135.164 18.8793C134.922 18.8793 134.776 18.6852 134.776 18.4425C134.776 18.1999 134.922 18.0543 135.164 18.0543Z" fill="black"/>
<path d="M139.726 17.9087C139.726 17.4719 139.435 17.1807 138.901 16.9865L138.27 16.7924C137.64 16.5983 137.397 16.1615 137.397 15.6761C137.397 14.9967 138.028 14.5599 138.756 14.5599C139.29 14.5599 139.629 14.7055 139.921 14.8511L139.969 15.5791H139.823C139.581 14.9967 139.193 14.754 138.756 14.754C138.222 14.754 137.931 14.9967 137.931 15.385C137.931 15.7247 138.076 16.0159 138.61 16.1615L139.096 16.3071C139.484 16.4527 140.26 16.6953 140.26 17.5204C140.26 18.2484 139.678 18.7823 138.804 18.7823C138.27 18.7823 137.737 18.6367 137.397 18.4425L137.348 17.6175H137.445C137.737 18.4425 138.173 18.5396 138.804 18.5396C139.435 18.6367 139.726 18.2969 139.726 17.9087Z" fill="black"/>
<path d="M142.881 16.7924V18.1028C142.881 18.3455 142.93 18.5396 143.124 18.5396C143.221 18.5396 143.318 18.4911 143.415 18.394L143.512 18.4425C143.318 18.7337 143.124 18.8308 142.93 18.8308C142.687 18.8308 142.493 18.6852 142.444 18.394C142.202 18.7337 141.91 18.8308 141.668 18.8308C141.231 18.8308 140.94 18.5396 140.94 18.1513C140.94 17.5689 141.522 17.3263 142.396 17.3263H142.444V16.6953C142.444 16.4041 142.347 16.21 142.056 16.21C141.765 16.21 141.619 16.3556 141.619 16.5497C141.619 16.7439 141.571 16.8895 141.377 16.8895C141.231 16.8895 141.134 16.7924 141.134 16.6468C141.134 16.3071 141.571 16.0159 142.056 16.0159C142.444 16.113 142.881 16.2586 142.881 16.7924ZM141.813 18.5881C142.007 18.5881 142.25 18.4911 142.396 18.2969V17.5204C141.668 17.5689 141.425 17.8601 141.425 18.1513C141.377 18.4425 141.571 18.5881 141.813 18.5881Z" fill="black"/>
<path d="M146.084 18.1513C145.842 18.7337 145.356 18.8793 145.017 18.8793C144.191 18.8793 143.706 18.2484 143.706 17.5204C143.706 16.6953 144.289 16.1129 145.065 16.1129C145.405 16.1129 145.987 16.2585 145.987 16.5497C145.987 16.6953 145.89 16.7924 145.745 16.7924C145.356 16.7924 145.55 16.2585 145.017 16.2585C144.677 16.2585 144.24 16.6468 144.24 17.3748C144.24 18.0543 144.58 18.5396 145.114 18.5396C145.308 18.5396 145.647 18.4911 145.89 18.0543L146.084 18.1513Z" fill="black"/>
<path d="M146.715 14.754L146.424 14.7055V14.5599L147.395 14.4628C147.395 14.4628 147.395 15.1908 147.395 15.7247V17.4719C147.395 17.9087 147.395 18.3455 147.395 18.3455C147.395 18.4911 147.443 18.5396 147.589 18.5396L147.831 18.5881V18.7823H146.424V18.6367L146.667 18.5881C146.861 18.5396 146.861 18.4911 146.909 18.394C146.909 18.394 146.909 17.8116 146.909 17.5204V15.7732C146.909 15.3364 146.909 14.9967 146.909 14.9482C146.861 14.8511 146.812 14.8026 146.715 14.754ZM148.123 16.7924C148.414 16.5012 148.317 16.3556 147.977 16.3556V16.21H149.239V16.3556C148.899 16.3556 148.705 16.5012 148.511 16.6953L147.88 17.2777L148.948 18.394C149.142 18.6367 149.287 18.6367 149.53 18.6367V18.7823H148.123V18.6852L148.511 18.5881L147.443 17.4233L148.123 16.7924Z" fill="black"/>
<path d="M149.918 14.754L149.627 14.7055V14.5599L150.598 14.4628C150.598 14.4628 150.598 15.1908 150.598 15.7247V17.4719C150.598 17.9087 150.598 18.3455 150.598 18.3455C150.598 18.4911 150.646 18.5396 150.792 18.5396L151.035 18.5881V18.7823H149.627V18.6367L149.87 18.5881C150.064 18.5396 150.064 18.4911 150.112 18.394C150.112 18.394 150.112 17.8116 150.112 17.5204V15.7732C150.112 15.3364 150.112 14.9967 150.112 14.9482C150.064 14.8511 150.015 14.8026 149.918 14.754Z" fill="black"/>
<path d="M151.957 17.2292V17.4233C151.957 18.1028 152.296 18.5881 152.83 18.5881C153.073 18.5881 153.461 18.5396 153.704 18.0543L153.85 18.1028C153.607 18.6367 153.219 18.8793 152.733 18.8793C151.908 18.8793 151.423 18.2969 151.423 17.5204C151.423 16.6953 152.005 16.1615 152.733 16.1615C153.316 16.1615 153.801 16.5497 153.85 17.2777H151.957V17.2292ZM151.957 17.0351H153.267C153.267 16.4042 152.976 16.2586 152.685 16.2586C152.345 16.2586 152.005 16.5983 151.957 17.0351Z" fill="black"/>
<path d="M155.16 16.1615V16.8895C155.257 16.4527 155.548 16.0644 155.985 16.0644C156.228 16.0644 156.373 16.21 156.373 16.4041C156.373 16.5497 156.228 16.6468 156.131 16.6468C155.888 16.6468 155.791 16.4041 155.742 16.4041C155.597 16.4041 155.354 16.6468 155.257 17.0351V17.5204C155.257 17.9572 155.257 18.394 155.257 18.394C155.257 18.5396 155.306 18.5881 155.451 18.5881L155.742 18.6367V18.7823H154.286V18.6367L154.529 18.5881C154.723 18.5396 154.723 18.4911 154.772 18.394C154.772 18.394 154.772 17.8601 154.772 17.5204V16.5983C154.772 16.4527 154.723 16.4041 154.626 16.3556L154.335 16.3071V16.1615H155.16Z" fill="black"/>
<path d="M162.731 18.6367L163.022 18.6852V18.7823H161.324V18.6367L161.566 18.5881C161.712 18.5396 161.857 18.4911 161.857 18.3455C161.857 18.3455 161.857 17.9087 161.809 17.3263L161.712 15.1423L160.353 18.7823H160.256L158.751 15.0938L158.606 18.1028C158.606 18.3455 158.654 18.5881 159.188 18.5881V18.7823H157.732V18.6367C158.169 18.6367 158.363 18.394 158.363 18.1513L158.557 15.0938C158.557 14.8996 158.46 14.8026 158.315 14.8026H158.023V14.657H159.285L160.547 17.8116L161.76 14.657H162.974V14.8026H162.683C162.537 14.8026 162.391 14.8996 162.44 15.1423L162.537 17.3748C162.537 17.8116 162.585 18.394 162.585 18.394C162.488 18.5396 162.585 18.5881 162.731 18.6367Z" fill="black"/>
<path d="M165.497 18.1513C165.303 18.5881 165.012 18.8308 164.624 18.8308C163.944 18.8308 163.799 18.2969 163.799 17.7145V16.5983C163.799 16.4527 163.75 16.4041 163.653 16.3556L163.362 16.3071V16.1615L164.333 16.1129V17.6175C164.333 18.1028 164.43 18.4425 164.867 18.4425C165.109 18.4425 165.4 18.2969 165.546 17.8601V16.5497C165.546 16.4041 165.497 16.3556 165.4 16.3071L165.109 16.2585V16.1129L166.08 16.0644V18.2969C166.08 18.394 166.128 18.4425 166.323 18.4911L166.565 18.5396V18.7823H165.643L165.497 18.1513Z" fill="black"/>
<path d="M167.099 18.5881L166.953 18.8308H166.856V17.8116H167.002C167.099 18.3455 167.39 18.5881 167.778 18.5881C168.07 18.5881 168.312 18.4911 168.312 18.1513C168.312 17.8601 168.07 17.7145 167.778 17.6175L167.487 17.5689C167.002 17.4233 166.856 17.1321 166.856 16.8409C166.856 16.3556 167.293 16.1129 167.778 16.1129C167.973 16.1129 168.215 16.1615 168.409 16.3071L168.555 16.1129H168.652V17.0351H168.506C168.458 16.5497 168.167 16.3071 167.827 16.3071C167.584 16.3071 167.342 16.4527 167.342 16.6953C167.342 16.9865 167.536 17.0836 167.827 17.1321L168.07 17.1807C168.506 17.2777 168.798 17.5204 168.798 17.9572C168.798 18.4911 168.361 18.7823 167.827 18.7823C167.633 18.8793 167.342 18.8308 167.099 18.5881Z" fill="black"/>
<path d="M169.865 17.2292V17.4233C169.865 18.1028 170.205 18.5881 170.739 18.5881C170.982 18.5881 171.37 18.5396 171.613 18.0543L171.758 18.1028C171.516 18.6367 171.127 18.8793 170.642 18.8793C169.817 18.8793 169.332 18.2969 169.332 17.5204C169.332 16.6953 169.914 16.1615 170.642 16.1615C171.224 16.1615 171.71 16.5497 171.758 17.2777H169.865V17.2292ZM169.914 17.0351H171.224C171.224 16.4042 170.933 16.2586 170.642 16.2586C170.254 16.2586 169.962 16.5983 169.914 17.0351Z" fill="black"/>
<path d="M174.185 18.1513C173.991 18.5881 173.7 18.8308 173.311 18.8308C172.632 18.8308 172.486 18.2969 172.486 17.7145V16.5983C172.486 16.4527 172.438 16.4041 172.341 16.3556L172.049 16.3071V16.1615L173.02 16.1129V17.6175C173.02 18.1028 173.117 18.4425 173.554 18.4425C173.797 18.4425 174.088 18.2969 174.233 17.8601V16.5497C174.233 16.4041 174.185 16.3556 174.088 16.3071L173.797 16.2585V16.1129L174.767 16.0644V18.2969C174.767 18.394 174.816 18.4425 175.01 18.4911L175.253 18.5396V18.7823H174.33L174.185 18.1513Z" fill="black"/>
<path d="M176.369 16.1615L176.417 16.6953C176.612 16.3556 176.903 16.1129 177.291 16.1129C177.728 16.1129 177.97 16.3071 178.067 16.7439C178.262 16.3556 178.601 16.1129 178.99 16.1129C179.523 16.1129 179.815 16.4527 179.815 17.1321V17.5689C179.815 17.8601 179.815 18.4425 179.815 18.4425C179.815 18.5396 179.863 18.5881 180.057 18.6367L180.3 18.6852V18.7823H178.893V18.6367L179.135 18.5881C179.329 18.5396 179.329 18.4911 179.329 18.394C179.329 18.394 179.329 17.8601 179.329 17.5204V17.1807C179.329 16.6953 179.232 16.4041 178.795 16.4041C178.553 16.4041 178.31 16.5497 178.116 16.8895C178.116 16.9865 178.116 17.0351 178.116 17.1321V17.5689C178.116 17.8601 178.116 18.4425 178.116 18.4425C178.116 18.5396 178.165 18.5881 178.359 18.6367L178.601 18.6852V18.7823H177.194V18.6367L177.437 18.5881C177.631 18.5396 177.631 18.4911 177.631 18.394C177.631 18.394 177.631 17.8601 177.631 17.5204V17.1807C177.631 16.6953 177.534 16.4041 177.097 16.4041C176.903 16.4041 176.611 16.5497 176.466 16.8409V17.5204C176.466 17.9572 176.466 18.394 176.466 18.394C176.466 18.5396 176.514 18.5881 176.66 18.5881L176.903 18.6367V18.7823H175.495V18.6367L175.738 18.5881C175.932 18.5396 175.932 18.4911 175.932 18.394C175.932 18.394 175.932 17.8116 175.932 17.5204V16.5497C175.932 16.4041 175.884 16.4041 175.786 16.3556L175.495 16.3071V16.1615H176.369Z" fill="black"/>
<path d="M110.17 12.3274L110.413 12.2788C110.558 12.2303 110.655 12.1818 110.655 12.0362C110.655 11.8906 110.655 11.4538 110.655 11.017V9.75512C110.655 9.17273 110.655 8.78446 110.655 8.78446C110.655 8.59033 110.558 8.5418 110.413 8.49327L110.17 8.44473V8.29913C110.607 8.29913 111.335 8.29913 111.82 8.29913C112.645 8.2506 113.276 8.5418 113.276 9.26979C113.276 9.75512 112.839 10.1434 112.354 10.2405C112.936 10.289 113.519 10.6287 113.519 11.2596C113.519 11.9876 112.888 12.4244 112.014 12.4244H110.121V12.3274H110.17ZM111.238 10.2405H111.674C112.305 10.2405 112.694 9.94925 112.694 9.36686C112.694 8.6874 112.208 8.5418 111.723 8.59033C111.48 8.59033 111.286 8.59033 111.286 8.59033V10.2405H111.238ZM111.238 10.3861V11.017C111.238 11.5023 111.238 11.9391 111.238 11.9391C111.238 12.2788 111.383 12.2788 111.82 12.2788C112.548 12.2788 112.888 11.9876 112.888 11.3082C112.888 10.7743 112.548 10.3861 111.82 10.3861H111.238Z" fill="black"/>
<path d="M115.994 11.842C115.8 12.2788 115.508 12.5215 115.12 12.5215C114.441 12.5215 114.295 11.9876 114.295 11.4052V10.289C114.295 10.1434 114.247 10.0949 114.15 10.0463L113.858 9.99778V9.85219L114.829 9.80365V11.3082C114.829 11.7935 114.926 12.1332 115.363 12.1332C115.606 12.1332 115.897 11.9876 116.042 11.5508V10.2404C116.042 10.0949 115.994 10.0463 115.897 9.99778L115.606 9.94925V9.80365L116.576 9.75512V11.9876C116.576 12.0847 116.625 12.1332 116.819 12.1818L117.062 12.2303V12.473H116.139L115.994 11.842Z" fill="black"/>
<path d="M117.547 12.2788L117.401 12.5215H117.304V11.5023H117.45C117.547 12.0362 117.838 12.2788 118.226 12.2788C118.518 12.2788 118.76 12.1818 118.76 11.842C118.76 11.5508 118.518 11.4052 118.226 11.3082L117.935 11.2596C117.45 11.114 117.304 10.8228 117.304 10.5316C117.304 10.0463 117.741 9.80365 118.226 9.80365C118.42 9.80365 118.663 9.85218 118.857 9.99778L119.003 9.80365H119.1V10.7258H118.954C118.906 10.2404 118.615 9.99778 118.275 9.99778C118.032 9.99778 117.79 10.1434 117.79 10.386C117.79 10.6772 117.984 10.7743 118.275 10.8228L118.518 10.8714C118.954 10.9684 119.246 11.2111 119.246 11.6479C119.246 12.1818 118.809 12.473 118.275 12.473C118.081 12.57 117.741 12.5215 117.547 12.2788Z" fill="black"/>
<path d="M122.06 11.842C121.818 12.4244 121.332 12.57 120.993 12.57C120.168 12.57 119.682 11.9391 119.682 11.2111C119.682 10.386 120.265 9.80365 121.041 9.80365C121.381 9.80365 121.963 9.94925 121.963 10.2404C121.963 10.386 121.866 10.4831 121.721 10.4831C121.332 10.4831 121.527 9.94925 120.993 9.94925C120.653 9.94925 120.216 10.3375 120.216 11.0655C120.216 11.745 120.556 12.2303 121.09 12.2303C121.284 12.2303 121.624 12.1818 121.866 11.745L122.06 11.842Z" fill="black"/>
<path d="M123.322 10.4346C123.516 10.0463 123.856 9.80365 124.244 9.80365C124.778 9.80365 125.069 10.1434 125.069 10.8228V11.2596C125.069 11.5508 125.069 12.1332 125.069 12.1332C125.069 12.2303 125.118 12.2788 125.312 12.3274L125.555 12.3759V12.473H124.147V12.3274L124.39 12.2788C124.584 12.2303 124.584 12.1818 124.584 12.0847C124.584 12.0847 124.584 11.5508 124.584 11.2111V10.8714C124.584 10.386 124.487 10.0948 124.002 10.0948C123.759 10.0948 123.468 10.2404 123.322 10.5802V11.2596C123.322 11.6964 123.322 12.1332 123.322 12.1332C123.322 12.2788 123.371 12.3274 123.516 12.3274L123.759 12.3759V12.473H122.352V12.3274L122.594 12.2788C122.788 12.2303 122.788 12.1818 122.788 12.0847C122.788 12.0847 122.788 11.5023 122.788 11.2111V9.46392C122.788 8.93006 122.788 8.68739 122.788 8.63886C122.788 8.49326 122.74 8.44473 122.643 8.39619L122.352 8.34766V8.20206L123.322 8.105C123.322 8.105 123.322 8.88152 123.322 9.36685V10.4346Z" fill="black"/>
<path d="M125.895 11.017H127.448V11.2596H125.895V11.017Z" fill="black"/>
<path d="M128.03 8.34766C128.467 8.34766 129.049 8.34766 129.583 8.34766C130.311 8.34766 131.185 8.49326 131.185 9.36686C131.185 9.85219 130.748 10.386 130.02 10.4346C130.554 10.4831 130.845 10.7258 131.039 11.3082C131.33 12.1332 131.476 12.3759 132.01 12.3759V12.473C131.816 12.57 131.67 12.57 131.476 12.57C130.893 12.57 130.602 12.0847 130.408 11.4538C130.165 10.6287 129.729 10.5316 129.098 10.5316V11.017C129.098 11.5023 129.098 12.0362 129.098 12.0362C129.098 12.2303 129.195 12.2788 129.437 12.2788L129.777 12.3274V12.473H128.03V12.3274L128.273 12.2788C128.418 12.2303 128.564 12.1818 128.564 12.0362C128.564 12.0362 128.564 11.7935 128.564 11.017V9.75512C128.564 9.31832 128.564 8.97859 128.564 8.78446C128.564 8.59033 128.467 8.5418 128.273 8.49326L128.03 8.44473V8.34766ZM129.146 10.3375H129.437C130.262 10.3375 130.554 9.94925 130.554 9.36686C130.554 8.63886 129.971 8.49326 129.437 8.49326C129.292 8.49326 129.243 8.49326 129.098 8.49326V10.3375H129.146Z" fill="black"/>
<path d="M132.738 10.9199V11.114C132.738 11.7935 133.077 12.2788 133.611 12.2788C133.854 12.2788 134.242 12.2303 134.485 11.745L134.63 11.7935C134.388 12.3274 134 12.57 133.514 12.57C132.689 12.57 132.204 11.9876 132.204 11.2111C132.204 10.3861 132.786 9.85219 133.514 9.85219C134.097 9.85219 134.582 10.2405 134.63 10.9684H132.738V10.9199ZM132.786 10.7258H134.097C134.097 10.0949 133.805 9.94925 133.514 9.94925C133.126 9.94925 132.835 10.289 132.786 10.7258Z" fill="black"/>
<path d="M135.407 10.3375C135.407 10.1919 135.358 10.1434 135.261 10.0949L134.97 10.0463V9.90072L135.941 9.80366V11.2111C135.941 11.6479 135.941 12.0847 135.941 12.0847C135.941 12.2303 135.941 12.2788 136.135 12.2788L136.378 12.3274V12.473H134.97V12.3274L135.213 12.2788C135.407 12.2303 135.407 12.1818 135.456 12.0847C135.456 12.0847 135.456 11.5023 135.456 11.2111V10.3375H135.407ZM135.65 8.3962C135.844 8.3962 136.038 8.5418 136.038 8.73593C136.038 8.93006 135.892 9.1242 135.65 9.1242C135.456 9.1242 135.31 8.9786 135.31 8.73593C135.31 8.59033 135.456 8.3962 135.65 8.3962Z" fill="black"/>
<path d="M137.057 12.2788L136.912 12.5215H136.814V11.5023H136.96C137.057 12.0362 137.348 12.2788 137.737 12.2788C138.028 12.2788 138.27 12.1818 138.27 11.842C138.27 11.5508 138.028 11.4052 137.737 11.3082L137.494 11.2596C137.009 11.114 136.863 10.8228 136.863 10.5316C136.863 10.0463 137.3 9.80365 137.785 9.80365C137.979 9.80365 138.222 9.85218 138.416 9.99778L138.562 9.80365H138.659V10.7258H138.465C138.416 10.2404 138.125 9.99778 137.785 9.99778C137.542 9.99778 137.3 10.1434 137.3 10.386C137.3 10.6772 137.494 10.7743 137.785 10.8228L138.028 10.8714C138.465 10.9684 138.756 11.2111 138.756 11.6479C138.756 12.1818 138.319 12.473 137.785 12.473C137.591 12.57 137.251 12.5215 137.057 12.2788Z" fill="black"/>
<path d="M139.629 10.3375C139.629 10.1919 139.581 10.1434 139.484 10.0949L139.193 10.0463V9.90072L140.163 9.80366V11.2111C140.163 11.6479 140.163 12.0847 140.163 12.0847C140.163 12.2303 140.163 12.2788 140.357 12.2788L140.6 12.3274V12.473H139.193V12.3274L139.435 12.2788C139.629 12.2303 139.629 12.1818 139.678 12.0847C139.678 12.0847 139.678 11.5023 139.678 11.2111V10.3375H139.629ZM139.872 8.3962C140.066 8.3962 140.26 8.5418 140.26 8.73593C140.26 8.93006 140.115 9.1242 139.872 9.1242C139.678 9.1242 139.532 8.9786 139.532 8.73593C139.484 8.59033 139.629 8.3962 139.872 8.3962Z" fill="black"/>
<path d="M141.862 9.85219L141.91 10.386C142.153 9.94925 142.444 9.75512 142.833 9.75512C143.366 9.75512 143.658 10.0949 143.658 10.7743V11.2111C143.658 11.5023 143.658 12.0847 143.658 12.0847C143.658 12.1818 143.706 12.2303 143.9 12.2788L144.143 12.3274V12.473H142.735V12.3274L142.978 12.2788C143.172 12.2303 143.172 12.1818 143.172 12.0847C143.172 12.0847 143.172 11.5508 143.172 11.2111V10.8714C143.172 10.386 143.027 10.0949 142.59 10.0949C142.396 10.0949 142.105 10.2404 141.91 10.5802V11.2111C141.91 11.6479 141.91 12.0847 141.91 12.0847C141.91 12.2303 141.959 12.2788 142.105 12.2788L142.347 12.3274V12.473H140.891V12.3274L141.134 12.2788C141.328 12.2303 141.328 12.1818 141.328 12.0847C141.328 12.0847 141.328 11.5023 141.328 11.2111V10.2404C141.328 10.0949 141.28 10.0949 141.182 10.0463H140.891V9.90072L141.862 9.85219Z" fill="black"/>
<path d="M145.502 11.745C145.065 11.745 144.871 11.9391 144.871 12.0847C144.871 12.2303 144.968 12.3274 145.259 12.3274H145.939C146.667 12.3274 147.055 12.57 147.055 13.1039C147.055 13.7348 146.473 14.1231 145.599 14.1231C145.017 14.1231 144.337 13.8804 144.337 13.3466C144.337 13.1524 144.531 12.9098 144.919 12.8127C144.628 12.7642 144.483 12.5215 144.483 12.3274C144.483 12.1332 144.628 11.7935 145.211 11.745C144.822 11.5994 144.531 11.2596 144.531 10.7743C144.531 10.1434 145.065 9.80365 145.599 9.85218C145.793 9.85218 145.987 9.90072 146.133 9.99778L147.201 9.90072C147.346 10.4346 147.006 10.289 146.764 10.2404L146.278 10.0948C146.521 10.289 146.667 10.5316 146.667 10.8228C146.618 11.3567 146.181 11.745 145.502 11.745ZM145.308 12.8127C145.162 12.8127 145.114 12.8127 145.017 12.8127C144.871 12.9098 144.725 13.1039 144.725 13.298C144.725 13.7348 145.162 13.8804 145.55 13.8804C146.036 13.8804 146.618 13.7348 146.618 13.2495C146.618 12.9098 146.278 12.7642 145.89 12.8127H145.308ZM145.017 10.7258C145.017 11.2111 145.162 11.5994 145.55 11.5994C145.987 11.5994 146.084 11.1626 146.133 10.8228C146.133 10.3375 145.987 9.94925 145.599 9.94925C145.211 9.94925 145.017 10.2404 145.017 10.7258Z" fill="black"/>
<path d="M147.929 10.9199V11.114C147.929 11.7935 148.268 12.2788 148.802 12.2788C149.045 12.2788 149.433 12.2303 149.676 11.745L149.821 11.7935C149.579 12.3274 149.19 12.57 148.705 12.57C147.88 12.57 147.395 11.9876 147.395 11.2111C147.395 10.3861 147.977 9.85219 148.705 9.85219C149.287 9.85219 149.773 10.2405 149.821 10.9684H147.929V10.9199ZM147.929 10.7258H149.239C149.239 10.0949 148.948 9.94925 148.657 9.94925C148.317 9.94925 147.977 10.289 147.929 10.7258Z" fill="black"/>
<path d="M151.035 9.85219V10.5802C151.132 10.1434 151.423 9.75512 151.86 9.75512C152.102 9.75512 152.248 9.90072 152.248 10.0949C152.248 10.2404 152.102 10.3375 152.005 10.3375C151.763 10.3375 151.666 10.0949 151.617 10.0949C151.471 10.0949 151.229 10.3375 151.132 10.7258V11.2111C151.132 11.6479 151.132 12.0847 151.132 12.0847C151.132 12.2303 151.18 12.2788 151.326 12.2788L151.617 12.3274V12.473H150.161V12.3274L150.404 12.2788C150.598 12.2303 150.598 12.1818 150.646 12.0847C150.646 12.0847 150.646 11.5508 150.646 11.2111V10.289C150.646 10.1434 150.598 10.0949 150.501 10.0463H150.112V9.90072L151.035 9.85219Z" fill="black"/>
<path d="M158.557 12.3274L158.848 12.3759V12.473H157.15V12.3274L157.392 12.2788C157.538 12.2303 157.684 12.1818 157.684 12.0362C157.684 12.0362 157.684 11.5994 157.635 11.017L157.538 8.83299L156.179 12.473H156.082L154.578 8.78446L154.432 11.7935C154.432 12.0362 154.48 12.2788 155.014 12.2788V12.473H153.558V12.3274C153.995 12.3274 154.189 12.0847 154.189 11.842L154.383 8.78446C154.383 8.59033 154.286 8.49326 154.141 8.49326H153.85V8.34766H155.111L156.373 11.5023L157.587 8.34766H158.8V8.49326H158.509C158.363 8.49326 158.217 8.59033 158.266 8.83299L158.363 11.0655C158.363 11.5023 158.412 12.0847 158.412 12.0847C158.266 12.2303 158.363 12.2788 158.557 12.3274Z" fill="black"/>
<path d="M161.275 11.842C161.081 12.2788 160.79 12.5215 160.401 12.5215C159.722 12.5215 159.576 11.9876 159.576 11.4052V10.289C159.576 10.1434 159.528 10.0948 159.431 10.0463L159.14 9.99778V9.85218L160.11 9.80365V11.3082C160.11 11.7935 160.207 12.1332 160.644 12.1332C160.887 12.1332 161.178 11.9876 161.324 11.5508V10.2404C161.324 10.0948 161.275 10.0463 161.178 9.99778L160.79 10.0463V9.90072L161.76 9.85218V12.0847C161.76 12.1818 161.809 12.2303 162.003 12.2788L162.246 12.3274V12.473H161.324L161.275 11.842Z" fill="black"/>
<path d="M162.828 12.2788L162.683 12.5215H162.585V11.5023H162.731C162.828 12.0362 163.119 12.2788 163.508 12.2788C163.799 12.2788 164.041 12.1818 164.041 11.842C164.041 11.5508 163.799 11.4052 163.508 11.3082L163.265 11.2596C162.78 11.114 162.634 10.8228 162.634 10.5316C162.634 10.0463 163.071 9.80365 163.556 9.80365C163.75 9.80365 163.993 9.85218 164.187 9.99778L164.333 9.80365H164.43V10.7258H164.187C164.139 10.2404 163.847 9.99778 163.508 9.99778C163.265 9.99778 163.022 10.1434 163.022 10.386C163.022 10.6772 163.216 10.7743 163.508 10.8228L163.75 10.8714C164.187 10.9684 164.478 11.2111 164.478 11.6479C164.478 12.1818 164.041 12.473 163.508 12.473C163.362 12.57 163.022 12.5215 162.828 12.2788Z" fill="black"/>
<path d="M165.546 10.9199V11.114C165.546 11.7935 165.886 12.2788 166.42 12.2788C166.662 12.2788 167.05 12.2303 167.293 11.745L167.439 11.7935C167.196 12.3274 166.808 12.57 166.322 12.57C165.497 12.57 165.012 11.9876 165.012 11.2111C165.012 10.3861 165.595 9.85219 166.322 9.85219C166.905 9.85219 167.39 10.2405 167.439 10.9684H165.546V10.9199ZM165.546 10.7258H166.856C166.856 10.0949 166.565 9.94925 166.274 9.94925C165.886 9.94925 165.594 10.289 165.546 10.7258Z" fill="black"/>
<path d="M169.768 11.842C169.574 12.2788 169.283 12.5215 168.895 12.5215C168.215 12.5215 168.07 11.9876 168.07 11.4052V10.289C168.07 10.1434 168.021 10.0949 167.924 10.0463L167.633 9.99778V9.85219L168.604 9.80365V11.3082C168.604 11.7935 168.701 12.1332 169.137 12.1332C169.38 12.1332 169.671 11.9876 169.817 11.5508V10.2404C169.817 10.0949 169.768 10.0463 169.671 9.99778L169.38 9.94925V9.80365L170.351 9.75512V11.9876C170.351 12.0847 170.399 12.1332 170.593 12.1818L170.836 12.2303V12.473H169.914L169.768 11.842Z" fill="black"/>
<path d="M171.904 9.85218L171.952 10.386C172.146 10.0463 172.438 9.80365 172.826 9.80365C173.263 9.80365 173.505 9.99778 173.602 10.4346C173.797 10.0463 174.136 9.80365 174.525 9.80365C175.058 9.80365 175.35 10.1434 175.35 10.8228V11.2596C175.35 11.5508 175.35 12.1332 175.35 12.1332C175.35 12.2303 175.398 12.2788 175.592 12.3274L175.835 12.3759V12.473H174.428V12.3274L174.67 12.2788C174.864 12.2303 174.864 12.1818 174.864 12.0847C174.864 12.0847 174.864 11.5508 174.864 11.2111V10.8714C174.864 10.386 174.767 10.0948 174.33 10.0948C174.088 10.0948 173.845 10.2404 173.651 10.5802C173.651 10.6772 173.651 10.7258 173.651 10.8228V11.2596C173.651 11.5508 173.651 12.1332 173.651 12.1332C173.651 12.2303 173.7 12.2788 173.894 12.3274L174.136 12.3759V12.473H172.729V12.3274L172.972 12.2788C173.166 12.2303 173.166 12.1818 173.166 12.0847C173.166 12.0847 173.166 11.5508 173.166 11.2111V10.8714C173.166 10.386 173.069 10.0948 172.632 10.0948C172.438 10.0948 172.146 10.2404 172.001 10.5316V11.2111C172.001 11.6479 172.001 12.0847 172.001 12.0847C172.001 12.2303 172.049 12.2788 172.195 12.2788L172.438 12.3274V12.473H170.982V12.3274L171.224 12.2788C171.418 12.2303 171.418 12.1818 171.418 12.0847C171.418 12.0847 171.418 11.5023 171.418 11.2111V10.2404C171.418 10.0948 171.37 10.0948 171.273 10.0463H170.982V9.90072L171.904 9.85218Z" fill="black"/>
<path d="M110.17 5.53276L110.413 5.48423C110.558 5.43569 110.655 5.38716 110.655 5.24156C110.655 5.09596 110.655 4.65917 110.655 4.22237V2.96051C110.655 2.37812 110.655 1.98985 110.655 1.98985C110.655 1.79572 110.558 1.74719 110.413 1.69865L110.17 1.65012V1.55305H113.373V2.47518H113.227C113.179 1.94132 112.888 1.79572 112.499 1.79572C112.16 1.79572 111.626 1.79572 111.286 1.79572C111.286 1.79572 111.286 2.47518 111.286 2.91198V3.39731H111.966C112.402 3.39731 112.548 3.30024 112.597 2.91198H112.742V4.17384H112.597C112.548 3.68851 112.402 3.63997 111.966 3.63997H111.286V4.36797C111.286 4.80476 111.286 5.29009 111.286 5.29009C111.286 5.48423 111.383 5.53276 111.626 5.53276L111.966 5.58129V5.67836H110.17V5.53276Z" fill="black"/>
<path d="M115.023 3.00904C115.848 3.00904 116.382 3.63997 116.382 4.4165C116.382 5.14449 115.8 5.77542 114.975 5.77542C114.101 5.77542 113.616 5.09596 113.616 4.36796C113.664 3.5429 114.295 3.00904 115.023 3.00904ZM115.023 3.20317C114.538 3.20317 114.198 3.63997 114.198 4.36796C114.198 4.99889 114.489 5.53276 114.975 5.53276C115.46 5.53276 115.8 5.09596 115.8 4.36796C115.8 3.6885 115.508 3.20317 115.023 3.20317Z" fill="black"/>
<path d="M118.032 4.95036C117.595 4.95036 117.401 5.14449 117.401 5.29009C117.401 5.43569 117.498 5.53276 117.79 5.53276H118.469C119.197 5.53276 119.585 5.77542 119.585 6.30928C119.585 6.94021 119.003 7.32848 118.129 7.32848C117.547 7.32848 116.867 7.08581 116.867 6.55195C116.867 6.35782 117.062 6.11515 117.45 6.01809C117.159 5.96955 117.013 5.72689 117.013 5.53276C117.013 5.33862 117.159 4.99889 117.741 4.95036C117.353 4.80476 117.062 4.46503 117.062 3.9797C117.062 3.34877 117.595 3.00904 118.129 3.05758C118.323 3.05758 118.518 3.10611 118.663 3.20317L119.731 3.10611C119.876 3.63997 119.537 3.49437 119.294 3.44584L118.809 3.30024C119.051 3.49437 119.197 3.73704 119.197 4.02823C119.1 4.5621 118.663 4.95036 118.032 4.95036ZM117.79 6.01809C117.644 6.01809 117.595 6.01809 117.498 6.01809C117.353 6.11515 117.207 6.30928 117.207 6.50342C117.207 6.94021 117.644 7.08581 118.032 7.08581C118.518 7.08581 119.1 6.94021 119.1 6.45488C119.1 6.11515 118.76 5.96955 118.372 6.01809H117.79ZM117.498 3.93117C117.498 4.4165 117.644 4.80476 118.032 4.80476C118.469 4.80476 118.566 4.36797 118.615 4.02823C118.615 3.54291 118.469 3.15464 118.081 3.15464C117.692 3.15464 117.498 3.44584 117.498 3.93117Z" fill="black"/>
<path d="M120.993 4.95036C120.556 4.95036 120.362 5.14449 120.362 5.29009C120.362 5.43569 120.459 5.53276 120.75 5.53276H121.43C122.158 5.53276 122.546 5.77542 122.546 6.30928C122.546 6.94021 121.963 7.32848 121.09 7.32848C120.507 7.32848 119.828 7.08581 119.828 6.55195C119.828 6.35782 120.022 6.11515 120.41 6.01809C120.119 5.96955 119.974 5.72689 119.974 5.53276C119.974 5.33862 120.119 4.99889 120.702 4.95036C120.313 4.80476 120.022 4.46503 120.022 3.9797C120.022 3.34877 120.556 3.00904 121.09 3.05758C121.284 3.05758 121.478 3.10611 121.624 3.20317L122.691 3.10611C122.837 3.63997 122.497 3.49437 122.255 3.44584L121.769 3.30024C122.012 3.49437 122.158 3.73704 122.158 4.02823C122.109 4.5621 121.624 4.95036 120.993 4.95036ZM120.799 6.01809C120.653 6.01809 120.604 6.01809 120.507 6.01809C120.362 6.11515 120.216 6.30928 120.216 6.50342C120.216 6.94021 120.653 7.08581 121.041 7.08581C121.527 7.08581 122.109 6.94021 122.109 6.45488C122.109 6.11515 121.769 5.96955 121.381 6.01809H120.799ZM120.459 3.93117C120.459 4.4165 120.604 4.80476 120.993 4.80476C121.43 4.80476 121.527 4.36797 121.575 4.02823C121.575 3.54291 121.43 3.15464 121.041 3.15464C120.653 3.15464 120.459 3.44584 120.459 3.93117Z" fill="black"/>
<path d="M128.904 5.53276L129.195 5.58129V5.67836H127.496V5.53276L127.739 5.48423C127.884 5.43569 128.03 5.38716 128.03 5.24156C128.03 5.24156 128.03 4.80476 127.981 4.22237L127.884 2.03838L126.525 5.67836H126.428L124.875 2.03838L124.73 5.04743C124.73 5.29009 124.778 5.53276 125.312 5.53276V5.67836H123.856V5.53276C124.293 5.53276 124.487 5.29009 124.487 5.04743L124.681 1.98985C124.681 1.79572 124.584 1.69865 124.439 1.69865H124.147V1.55305H125.409L126.671 4.7077L127.884 1.55305H129.098V1.69865H128.807C128.661 1.69865 128.515 1.79572 128.564 2.03838L128.661 4.2709C128.661 4.7077 128.709 5.29009 128.709 5.29009C128.612 5.43569 128.709 5.48423 128.904 5.53276Z" fill="black"/>
<path d="M131.621 5.04743C131.427 5.48423 131.136 5.72689 130.748 5.72689C130.068 5.72689 129.923 5.19303 129.923 4.61063V3.49437C129.923 3.34877 129.874 3.30024 129.777 3.25171L129.486 3.20318V3.15464L130.457 3.10611V4.61063C130.457 5.09596 130.554 5.43569 130.991 5.43569C131.233 5.43569 131.524 5.29009 131.67 4.8533V3.54291C131.67 3.39731 131.621 3.34877 131.524 3.30024L131.233 3.25171V3.15464L132.204 3.10611V5.33863C132.204 5.43569 132.252 5.48423 132.447 5.53276L132.689 5.58129V5.67836H131.767L131.621 5.04743Z" fill="black"/>
<path d="M133.174 5.48422L133.029 5.72689H132.932V4.7077H133.077C133.174 5.24156 133.466 5.48422 133.854 5.48422C134.145 5.48422 134.388 5.38716 134.388 5.04743C134.388 4.75623 134.145 4.61063 133.854 4.51356L133.611 4.46503C133.126 4.31943 132.98 4.02823 132.98 3.73704C132.98 3.25171 133.417 3.00904 133.902 3.00904C134.097 3.00904 134.339 3.05757 134.533 3.20317L134.679 3.00904H134.776V3.93117H134.63C134.582 3.44584 134.291 3.20317 133.951 3.20317C133.708 3.20317 133.466 3.34877 133.466 3.59144C133.466 3.88263 133.66 3.9797 133.951 4.02823L134.194 4.07677C134.63 4.17383 134.922 4.4165 134.922 4.85329C134.922 5.38716 134.485 5.67835 133.951 5.67835C133.66 5.77542 133.369 5.72689 133.174 5.48422Z" fill="black"/>
<path d="M135.844 4.1253V4.31944C135.844 4.9989 136.184 5.48423 136.717 5.48423C136.96 5.48423 137.348 5.43569 137.591 4.95036L137.737 4.9989C137.494 5.53276 137.106 5.77543 136.62 5.77543C135.795 5.77543 135.31 5.19303 135.31 4.4165C135.31 3.59144 135.892 3.05758 136.62 3.05758C137.203 3.05758 137.688 3.44584 137.737 4.17384H135.844V4.1253ZM135.892 3.93117H137.203C137.203 3.30024 136.912 3.15464 136.62 3.15464C136.232 3.15464 135.941 3.49438 135.892 3.93117Z" fill="black"/>
<path d="M140.115 5.04743C139.921 5.48423 139.629 5.72689 139.241 5.72689C138.562 5.72689 138.416 5.19303 138.416 4.61063V3.49437C138.416 3.34877 138.368 3.30024 138.27 3.25171L137.979 3.20318V3.15464L138.95 3.10611V4.61063C138.95 5.09596 139.047 5.43569 139.484 5.43569C139.726 5.43569 140.018 5.29009 140.163 4.8533V3.54291C140.163 3.39731 140.115 3.34877 140.018 3.30024L139.726 3.25171V3.15464L140.697 3.10611V5.33863C140.697 5.43569 140.746 5.48423 140.94 5.53276L141.182 5.58129V5.67836H140.26L140.115 5.04743Z" fill="black"/>
<path d="M142.25 3.05757L142.299 3.59144C142.493 3.25171 142.784 3.00904 143.172 3.00904C143.609 3.00904 143.852 3.20317 143.949 3.63997C144.143 3.25171 144.483 3.00904 144.871 3.00904C145.405 3.00904 145.696 3.34877 145.696 4.02823V4.46503C145.696 4.75623 145.696 5.33862 145.696 5.33862C145.696 5.43569 145.745 5.48422 145.939 5.53276L146.181 5.58129V5.67835H144.774V5.53276L145.017 5.48422C145.211 5.43569 145.211 5.38716 145.211 5.29009C145.211 5.29009 145.211 4.75623 145.211 4.4165V4.07677C145.211 3.59144 145.114 3.30024 144.677 3.30024C144.434 3.30024 144.191 3.44584 143.997 3.78557C143.997 3.88263 143.997 3.93117 143.997 4.02823V4.46503C143.997 4.75623 143.997 5.33862 143.997 5.33862C143.997 5.43569 144.046 5.48422 144.24 5.53276L144.483 5.58129V5.67835H143.075V5.53276L143.318 5.48422C143.512 5.43569 143.512 5.38716 143.512 5.29009C143.512 5.29009 143.512 4.75623 143.512 4.4165V4.07677C143.512 3.59144 143.415 3.30024 142.978 3.30024C142.784 3.30024 142.493 3.44584 142.347 3.73704V4.4165C142.347 4.85329 142.347 5.29009 142.347 5.29009C142.347 5.43569 142.396 5.48422 142.541 5.48422L142.784 5.53276V5.67835H141.377V5.53276L141.619 5.48422C141.813 5.43569 141.813 5.38716 141.813 5.29009C141.813 5.29009 141.813 4.70769 141.813 4.4165V3.44584C141.813 3.30024 141.765 3.30024 141.668 3.25171L141.377 3.20317V3.10611L142.25 3.05757Z" fill="black"/>
<path d="M107.549 0L107.937 0.339731L83.1855 25.0915L82.8458 24.7033L107.549 0Z" fill="black"/>
<path d="M11.5023 10.9199H3.25171L3.30024 18.6852H0.582397V1.79571H3.30024L3.20318 8.59032H11.4538V1.79571H14.026V18.6367H11.4538L11.5023 10.9199Z" fill="black"/>
<path d="M25.1886 17.1321C24.6547 17.8116 23.5385 19.0249 21.5001 19.0249C18.394 19.0249 16.1129 16.8409 16.1129 12.7642C16.1129 9.51245 18.0057 6.35781 21.5972 6.35781C23.587 6.35781 24.7033 7.47407 25.1886 8.15353L25.2371 6.64901H27.6153V18.6367H25.2371L25.1886 17.1321ZM25.2371 12.7642C25.2371 10.1434 24.1694 8.44473 22.034 8.44473C19.947 8.44473 18.8308 10.1434 18.8308 12.7642C18.8308 15.3849 19.947 16.9865 22.034 16.9865C24.1209 16.9865 25.2371 15.3849 25.2371 12.7642Z" fill="black"/>
<path d="M30.4787 6.64901H32.8083L32.8568 8.73593C33.2936 7.76527 34.1672 6.69754 35.5261 6.45488C36.1085 6.40634 36.4483 6.35781 36.8851 6.35781L36.8365 9.12419C36.788 9.12419 36.3997 9.02712 36.0115 9.02712C34.8952 9.02712 33.876 9.60952 33.3907 10.8228C33.051 11.5508 33.0024 12.8612 33.0024 14.5114V18.5881H30.4787V6.64901Z" fill="black"/>
<path d="M38.4381 6.64901H41.3986L44.5533 16.21L47.7079 6.64901H50.4258L46.0093 18.6367H42.9032L38.4381 6.64901Z" fill="black"/>
<path d="M59.7926 17.1321C59.2588 17.8116 58.1425 19.0249 56.1041 19.0249C52.998 19.0249 50.717 16.8409 50.717 12.7642C50.717 9.51245 52.6098 6.35781 56.2012 6.35781C58.191 6.35781 59.3073 7.47407 59.7926 8.15353L59.8412 6.64901H62.2193V18.6367H59.8412L59.7926 17.1321ZM59.7926 12.7642C59.7926 10.1434 58.7249 8.44473 56.5895 8.44473C54.5025 8.44473 53.3863 10.1434 53.3863 12.7642C53.3863 15.3849 54.5025 16.9865 56.5895 16.9865C58.7249 16.9865 59.7926 15.3849 59.7926 12.7642Z" fill="black"/>
<path d="M64.5974 6.64901H66.927L66.9755 8.73593C67.4123 7.76527 68.2859 6.69754 69.6448 6.45488C70.2272 6.40634 70.5669 6.35781 71.0037 6.35781L70.9552 9.12419C70.9067 9.12419 70.5184 9.02712 70.1301 9.02712C69.0139 9.02712 67.9947 9.60952 67.5094 10.8228C67.1696 11.5508 67.1211 12.8612 67.1211 14.5114V18.5881H64.5974V6.64901Z" fill="black"/>
<path d="M72.0229 12.7642C72.0229 9.51245 73.9157 6.35781 77.4586 6.35781C79.4 6.35781 80.5162 7.47407 81.0015 8.15353L80.9045 1.31038H83.4767V18.6852H81.0986L81.0501 17.1321C80.5162 17.9087 79.4 19.0249 77.4101 19.0249C74.2069 18.9764 72.0229 16.8409 72.0229 12.7642ZM81.0986 12.7642C81.0986 10.1434 80.0309 8.44473 77.8954 8.44473C75.8085 8.44473 74.6923 10.1434 74.6923 12.7642C74.6923 15.3849 75.8085 16.9865 77.8954 16.9865C80.0309 16.9865 81.0986 15.3849 81.0986 12.7642Z" fill="black"/>
<path d="M6.21222 25.043H9.46393L15.482 41.9325H12.4244L10.9685 37.516H4.31944L2.81491 41.9325H0L6.21222 25.043ZM4.95036 35.5261H10.2405L7.61968 27.5182L4.95036 35.5261Z" fill="black"/>
<path d="M17.5204 29.9448H19.85L19.8985 32.0318C20.3353 31.0611 21.2089 29.9934 22.5678 29.7507C23.1502 29.7022 23.49 29.6536 23.9268 29.6536L23.8782 32.42C23.8297 32.42 23.4414 32.323 23.0532 32.323C21.9369 32.323 20.9177 32.9053 20.4324 34.1187C20.0926 34.8467 20.0441 36.1571 20.0441 37.8072V41.8839H17.5204V29.9448Z" fill="black"/>
<path d="M24.3636 29.9448H26.0622L26.2078 26.6931H28.5859V29.9448H30.964V31.8862H28.5859V38.0498C28.5859 39.069 28.5859 39.9912 29.8963 39.9912C30.4787 39.9912 31.0611 39.9426 31.0611 39.9426L31.1582 41.9325C31.1582 41.9325 30.139 42.1266 28.8771 42.1266C26.7417 42.1266 26.0137 41.0589 26.0137 38.8264V31.9347H24.3636V29.9448Z" fill="black"/>
<path d="M38.0499 25.0915H41.7384L46.9799 39.1176L52.27 25.0915H55.8615V41.9325H53.1921L53.3377 28.683L48.3388 41.9325H45.3298L40.3794 28.4888L40.5736 41.9325H38.0499V25.0915Z" fill="black"/>
<path d="M58.3852 37.8072V29.9448H61.0059V36.6909C61.0059 38.2925 61.2001 40.0882 63.287 40.0882C64.5974 40.0882 65.3739 39.3117 65.8107 38.244C66.0534 37.613 66.1019 36.8365 66.1019 34.5069V29.9448H68.6742V41.9325H66.296L66.2475 40.3309C65.8592 41.0104 64.743 42.2722 62.5105 42.2722C59.647 42.2722 58.3852 40.1368 58.3852 37.8072Z" fill="black"/>
<path d="M69.839 38.972L72.4112 38.5352C72.4112 38.8264 72.7995 40.3309 75.032 40.3309C76.585 40.3309 77.313 39.797 77.313 38.8749C77.313 37.8557 76.5365 37.3704 74.5952 36.8851C71.392 36.06 70.3728 34.8952 70.3728 33.051C70.3728 31.1096 71.9744 29.5566 74.9834 29.5566C79.3029 29.5566 79.6426 32.6142 79.6426 32.6142L77.216 33.0995C77.216 32.9539 76.9733 31.4979 74.9349 31.4979C73.7701 31.4979 72.9451 32.0318 72.9451 32.9054C72.9451 33.7304 73.6245 34.2643 75.857 34.7981C78.8176 35.5747 79.9338 36.7395 79.9338 38.5837C79.9338 40.5736 78.5264 42.2237 74.8864 42.2237C70.1302 42.3208 69.839 38.972 69.839 38.972Z" fill="black"/>
<path d="M81.9237 36.0115C81.9237 32.42 83.865 29.6051 87.6991 29.6051C91.0479 29.6051 92.8921 31.8376 92.9406 35.1864C92.9406 35.6717 92.9406 36.1571 92.8921 36.4483H84.5444C84.593 38.7293 85.8548 40.2338 87.7962 40.2338C89.9316 40.2338 90.5625 38.6808 90.5625 38.6808L92.8436 39.4088C92.8436 39.4088 91.5817 42.2722 87.7962 42.2722C83.8164 42.3207 81.9237 39.7 81.9237 36.0115ZM84.4959 34.7011H90.3684C90.3684 33.0509 89.3977 31.6435 87.602 31.6435C85.9519 31.595 84.7386 32.8568 84.4959 34.7011Z" fill="black"/>
<path d="M94.4452 37.8072V29.9448H97.066V36.6909C97.066 38.2925 97.2601 40.0882 99.347 40.0882C100.657 40.0882 101.434 39.3117 101.871 38.244C102.113 37.613 102.162 36.8365 102.162 34.5069V29.9448H104.734V41.9325H102.356L102.308 40.3309C101.919 41.0104 100.803 42.2722 98.5705 42.2722C95.707 42.2722 94.4452 40.1368 94.4452 37.8072Z" fill="black"/>
<path d="M107.452 29.9448H109.83L109.879 31.6435C110.413 30.8184 111.529 29.6536 113.616 29.6536C115.751 29.6536 116.77 30.8184 117.256 31.8376C117.741 30.964 118.906 29.6536 121.138 29.6536C124.244 29.6536 125.361 31.7891 125.361 34.4099V41.9325H122.74V35.1379C122.74 33.6333 122.546 31.7891 120.362 31.7891C119.246 31.7891 118.469 32.3715 118.032 33.4877C117.741 34.2643 117.692 35.0893 117.692 37.613V41.9325H115.12V35.1379C115.12 33.6333 114.926 31.7891 112.791 31.7891C111.626 31.7891 110.849 32.42 110.413 33.4877C110.121 34.3128 110.073 35.0408 110.073 37.3704V41.9325H107.501V29.9448H107.452Z" fill="black"/>
<path d="M126.623 38.972L129.195 38.5352C129.195 38.8264 129.583 40.3309 131.816 40.3309C133.369 40.3309 134.097 39.797 134.097 38.8749C134.097 37.8557 133.32 37.3704 131.379 36.8851C128.176 36.06 127.156 34.8952 127.156 33.051C127.156 31.1096 128.758 29.5566 131.767 29.5566C136.086 29.5566 136.426 32.6142 136.426 32.6142L134 33.0995C134 32.9539 133.757 31.4979 131.718 31.4979C130.554 31.4979 129.729 32.0318 129.729 32.9054C129.729 33.7304 130.408 34.2643 132.641 34.7981C135.601 35.5747 136.717 36.7395 136.717 38.5837C136.717 40.5736 135.31 42.2237 131.67 42.2237C126.962 42.3208 126.623 38.972 126.623 38.972Z" fill="black"/>
</svg>
