<svg width="72" height="72" viewBox="0 0 72 72" fill="none" xmlns="http://www.w3.org/2000/svg">
<path fill-rule="evenodd" clip-rule="evenodd" d="M6.8708 60.3479C6.8708 59.957 19.9775 47.4801 20.7635 46.3072L28.2692 53.7384C29.6819 55.1502 29.7871 55.7177 31.9664 55.7177C33.5568 55.7177 35.2513 53.5537 36.6344 52.1695C37.7552 51.0497 48.5396 40.4143 48.9959 39.7345C49.7503 40.2398 61.235 51.899 63.1489 53.8129C65.6273 56.2914 65.1282 54.7439 65.1282 60.3479C65.1282 62.7702 62.7702 65.1282 60.3479 65.1282H11.6511C9.22368 65.1282 6.8708 62.7498 6.8708 60.3479ZM31.6684 47.5015L24.1616 40.0703C22.7499 38.6586 22.6437 38.091 20.4644 38.091C18.8924 38.091 17.5756 39.86 16.6926 40.743C15.4095 42.0261 7.54349 50.0392 6.8708 50.4893V14.1907C6.8708 11.5551 6.64929 10.8212 7.73437 9.07873C8.39379 8.01815 9.98823 6.8708 11.6511 6.8708H60.3479C61.7913 6.8708 63.3184 7.8436 63.939 8.65817C65.0036 10.0546 65.1302 10.5793 65.1282 12.9954V46.1572C64.4259 45.6866 53.47 34.5949 51.7224 32.8249C48.5509 29.6125 46.4246 32.8198 44.2534 34.992C43.1408 36.1036 32.3339 47.0555 31.6684 47.5015ZM0 11.502V60.498C0 64.7372 3.19195 69.2572 6.82589 70.8506C8.07837 71.3998 9.78204 72 11.502 72H60.498C62.2312 72 63.7818 71.4304 65.068 70.8945C68.7376 69.3634 72 64.7719 72 60.498V11.502C72 9.76775 71.4304 8.21822 70.8945 6.93103C69.3634 3.26238 64.7719 0 60.498 0H11.502C5.5979 0 0 5.58259 0 11.502Z" fill="#DADADA"/>
<path fill-rule="evenodd" clip-rule="evenodd" d="M30.174 28.5306C28.1977 28.5306 27.3127 28.5837 25.6519 26.928C22.7193 24.0045 24.2882 18.0748 29.7258 18.0748C32.5411 18.0748 34.5122 20.4839 34.7725 23.046C34.8317 23.6258 34.5908 24.6609 34.4193 25.158C33.8232 26.8831 31.8909 28.5306 30.174 28.5306ZM17.3276 23.1532C17.3276 25.061 17.743 26.585 18.3075 27.9988C19.8611 31.8889 24.1596 35.4024 28.8296 35.4024C31.1743 35.4024 32.4105 35.2901 34.5041 34.3551C36.3853 33.516 37.9767 32.1615 39.2037 30.5405C41.8801 27.0056 42.316 21.7813 40.3357 17.9207C39.6161 16.5171 38.9026 15.6852 37.8307 14.6012C32.5217 9.23089 23.4665 10.5936 19.5947 16.3089C19.1374 16.9836 18.8893 17.4971 18.5219 18.2239C17.9145 19.4263 17.3276 21.3556 17.3276 23.1532Z" fill="#DADADA"/>
</svg>
