<?xml version="1.0" encoding="UTF-8"?>
<!DOCTYPE svg PUBLIC "-//W3C//DTD SVG 1.1//EN" "http://www.w3.org/Graphics/SVG/1.1/DTD/svg11.dtd">
<!-- Creator: CorelDRAW 2020 (64-Bit) -->
<svg xmlns="http://www.w3.org/2000/svg" xml:space="preserve" width="139px" height="29px" version="1.1" style="shape-rendering:geometricPrecision; text-rendering:geometricPrecision; image-rendering:optimizeQuality; fill-rule:evenodd; clip-rule:evenodd"
viewBox="0 0 137.06 28.82"
 xmlns:xlink="http://www.w3.org/1999/xlink"
 xmlns:xodm="http://www.corel.com/coreldraw/odm/2003">
 <defs>
  <style type="text/css">
   <![CDATA[
    .fil0 {fill:black}
    .fil1 {fill:#801336}
    .fil3 {fill:black;fill-rule:nonzero}
    .fil2 {fill:#801336;fill-rule:nonzero}
   ]]>
  </style>
 </defs>
 <g id="Layer_x0020_1">
  <metadata id="CorelCorpID_0Corel-Layer"/>
  <polygon class="fil0" points="49.72,0 39.95,0 39.95,12.46 39.95,28.82 49.72,28.82 "/>
  <path class="fil1" d="M12.27 0l10.26 0 7.33 11.69 -5 7.69 -12.59 -19.37 0 -0.01zm27.53 0l9.92 0 0 0.02 -18.73 28.8 -4.96 -7.64 13.77 -21.18z"/>
  <polygon class="fil0" points="0,0 10.25,0 18.72,13.49 27.11,0 37.45,0 37.45,0.02 18.72,28.82 9.77,15.14 9.77,28.82 0,28.82 "/>
  <path class="fil1" d="M59.83 0c7.96,0 14.41,6.45 14.41,14.41 0,7.96 -6.45,14.41 -14.41,14.41 -7.96,0 -14.41,-6.45 -14.41,-14.41 0,-7.96 6.45,-14.41 14.41,-14.41zm0 9.69c2.6,0 4.72,2.11 4.72,4.72 0,2.6 -2.12,4.72 -4.72,4.72 -2.61,0 -4.72,-2.12 -4.72,-4.72 0,-2.61 2.11,-4.72 4.72,-4.72z"/>
  <path class="fil2" d="M82.73 25.69c0,0.45 -0.07,0.86 -0.22,1.24 -0.15,0.39 -0.36,0.72 -0.63,1 -0.27,0.28 -0.6,0.5 -0.98,0.65 -0.38,0.16 -0.8,0.24 -1.26,0.24 -0.47,0 -0.89,-0.08 -1.27,-0.24 -0.38,-0.15 -0.71,-0.37 -0.98,-0.65 -0.28,-0.28 -0.49,-0.61 -0.64,-1 -0.15,-0.38 -0.22,-0.79 -0.22,-1.24 0,-0.45 0.07,-0.87 0.22,-1.25 0.15,-0.38 0.36,-0.71 0.64,-0.99 0.27,-0.28 0.6,-0.5 0.98,-0.66 0.38,-0.15 0.8,-0.23 1.27,-0.23 0.46,0 0.88,0.08 1.26,0.24 0.38,0.16 0.71,0.37 0.98,0.65 0.27,0.28 0.48,0.61 0.63,0.99 0.15,0.38 0.22,0.8 0.22,1.25zm-1.16 0c0,-0.33 -0.05,-0.64 -0.14,-0.9 -0.09,-0.27 -0.21,-0.5 -0.38,-0.68 -0.17,-0.19 -0.37,-0.33 -0.61,-0.43 -0.24,-0.1 -0.51,-0.15 -0.8,-0.15 -0.3,0 -0.57,0.05 -0.81,0.15 -0.24,0.1 -0.45,0.24 -0.61,0.43 -0.17,0.18 -0.3,0.41 -0.39,0.68 -0.09,0.26 -0.14,0.57 -0.14,0.9 0,0.34 0.05,0.64 0.14,0.9 0.09,0.27 0.22,0.5 0.39,0.68 0.16,0.19 0.37,0.33 0.61,0.43 0.24,0.09 0.51,0.14 0.81,0.14 0.29,0 0.56,-0.05 0.8,-0.14 0.24,-0.1 0.44,-0.24 0.61,-0.43 0.17,-0.18 0.29,-0.41 0.38,-0.68 0.09,-0.26 0.14,-0.56 0.14,-0.9zm2.66 -3.06c0.05,0 0.09,0 0.12,0 0.04,0.01 0.07,0.02 0.1,0.03 0.02,0.01 0.05,0.03 0.07,0.05 0.03,0.03 0.06,0.06 0.09,0.1l3.21 4.09c-0.01,-0.09 -0.02,-0.19 -0.02,-0.29 -0.01,-0.09 -0.01,-0.18 -0.01,-0.26l0 -3.72 1.01 0 0 6.12 -0.59 0c-0.09,0 -0.17,-0.01 -0.23,-0.04 -0.06,-0.03 -0.11,-0.08 -0.17,-0.16l-3.2 -4.07c0.01,0.09 0.01,0.18 0.02,0.27 0,0.09 0,0.17 0,0.24l0 3.76 -1 0 0 -6.12 0.6 0zm6.94 5.18l2.45 0 0 0.94 -3.59 0 0 -6.12 1.14 0 0 5.18zm4.52 0.94l-1.14 0 0 -6.12 1.14 0 0 6.12zm1.97 -6.12c0.05,0 0.1,0 0.13,0 0.03,0.01 0.07,0.02 0.09,0.03 0.03,0.01 0.05,0.03 0.08,0.05 0.03,0.03 0.05,0.06 0.08,0.1l3.22 4.09c-0.01,-0.09 -0.02,-0.19 -0.02,-0.29 -0.01,-0.09 -0.01,-0.18 -0.01,-0.26l0 -3.72 1 0 0 6.12 -0.59 0c-0.09,0 -0.16,-0.01 -0.22,-0.04 -0.06,-0.03 -0.12,-0.08 -0.18,-0.16l-3.2 -4.07c0.01,0.09 0.02,0.18 0.02,0.27 0.01,0.09 0.01,0.17 0.01,0.24l0 3.76 -1 0 0 -6.12 0.59 0zm9.67 0l0 0.9 -2.71 0 0 1.7 2.13 0 0 0.88 -2.13 0 0 1.73 2.71 0 0 0.91 -3.86 0 0 -6.12 3.86 0zm0.68 5.54c0,-0.09 0.01,-0.17 0.05,-0.25 0.03,-0.08 0.07,-0.15 0.13,-0.2 0.06,-0.06 0.13,-0.1 0.21,-0.14 0.07,-0.03 0.16,-0.05 0.25,-0.05 0.09,0 0.17,0.02 0.25,0.05 0.08,0.04 0.15,0.08 0.2,0.14 0.06,0.05 0.1,0.12 0.14,0.2 0.03,0.08 0.05,0.16 0.05,0.25 0,0.09 -0.02,0.18 -0.05,0.26 -0.04,0.07 -0.08,0.14 -0.14,0.2 -0.05,0.05 -0.12,0.1 -0.2,0.13 -0.08,0.03 -0.16,0.05 -0.25,0.05 -0.09,0 -0.18,-0.02 -0.25,-0.05 -0.08,-0.03 -0.15,-0.08 -0.21,-0.13 -0.06,-0.06 -0.1,-0.13 -0.13,-0.2 -0.04,-0.08 -0.05,-0.17 -0.05,-0.26z"/>
  <path class="fil3" d="M80.41 4.2c0.07,0.14 0.14,0.27 0.2,0.42 0.07,0.14 0.13,0.29 0.19,0.43 0.05,-0.15 0.12,-0.3 0.18,-0.44 0.07,-0.15 0.14,-0.29 0.21,-0.42l1.94 -3.85c0.04,-0.06 0.08,-0.11 0.11,-0.15 0.04,-0.04 0.08,-0.06 0.12,-0.08 0.05,-0.02 0.1,-0.03 0.16,-0.03 0.06,0 0.12,0 0.2,0l1.34 0 0 7.6 -1.55 0 0 -4.37c0,-0.21 0.01,-0.44 0.03,-0.69l-2.01 3.91c-0.06,0.12 -0.15,0.21 -0.25,0.27 -0.11,0.06 -0.23,0.1 -0.36,0.1l-0.24 0c-0.14,0 -0.26,-0.04 -0.37,-0.1 -0.1,-0.06 -0.19,-0.15 -0.25,-0.27l-2.02 -3.92c0.01,0.13 0.02,0.25 0.03,0.37 0.01,0.12 0.01,0.23 0.01,0.33l0 4.37 -1.55 0 0 -7.6 1.34 0c0.08,0 0.15,0 0.2,0 0.06,0 0.11,0.01 0.16,0.03 0.04,0.02 0.08,0.04 0.12,0.08 0.04,0.04 0.07,0.09 0.11,0.15l1.95 3.86zm11.25 2.08c0.24,0 0.45,-0.04 0.63,-0.12 0.19,-0.07 0.35,-0.18 0.47,-0.33 0.13,-0.15 0.23,-0.32 0.3,-0.54 0.07,-0.21 0.1,-0.44 0.1,-0.71l0 -4.5 1.76 0 0 4.5c0,0.47 -0.07,0.89 -0.22,1.28 -0.16,0.39 -0.37,0.73 -0.65,1.01 -0.29,0.28 -0.63,0.5 -1.03,0.66 -0.4,0.15 -0.86,0.23 -1.36,0.23 -0.51,0 -0.96,-0.08 -1.36,-0.23 -0.41,-0.16 -0.75,-0.38 -1.03,-0.66 -0.28,-0.28 -0.5,-0.62 -0.65,-1.01 -0.15,-0.39 -0.22,-0.81 -0.22,-1.28l0 -4.5 1.76 0 0 4.49c0,0.27 0.03,0.51 0.1,0.72 0.07,0.21 0.17,0.39 0.29,0.54 0.13,0.14 0.29,0.26 0.48,0.33 0.18,0.08 0.39,0.12 0.63,0.12zm10.83 -4.65c-0.05,0.08 -0.11,0.14 -0.16,0.18 -0.06,0.04 -0.14,0.07 -0.23,0.07 -0.08,0 -0.16,-0.03 -0.25,-0.08 -0.1,-0.05 -0.2,-0.11 -0.32,-0.17 -0.11,-0.06 -0.25,-0.12 -0.4,-0.17 -0.15,-0.05 -0.32,-0.08 -0.51,-0.08 -0.33,0 -0.57,0.08 -0.73,0.22 -0.17,0.14 -0.25,0.33 -0.25,0.57 0,0.15 0.05,0.28 0.15,0.38 0.1,0.1 0.22,0.19 0.38,0.26 0.16,0.07 0.34,0.14 0.54,0.2 0.21,0.06 0.41,0.13 0.63,0.2 0.21,0.08 0.42,0.17 0.62,0.27 0.2,0.1 0.38,0.23 0.54,0.38 0.16,0.16 0.29,0.35 0.38,0.57 0.1,0.23 0.15,0.5 0.15,0.81 0,0.35 -0.06,0.68 -0.18,0.99 -0.12,0.3 -0.3,0.57 -0.53,0.8 -0.23,0.23 -0.52,0.41 -0.86,0.54 -0.33,0.13 -0.72,0.19 -1.15,0.19 -0.24,0 -0.48,-0.02 -0.72,-0.07 -0.24,-0.05 -0.48,-0.12 -0.71,-0.2 -0.23,-0.09 -0.45,-0.19 -0.65,-0.31 -0.2,-0.12 -0.38,-0.26 -0.52,-0.4l0.52 -0.84c0.03,-0.06 0.09,-0.11 0.16,-0.15 0.07,-0.04 0.14,-0.06 0.22,-0.06 0.11,0 0.21,0.03 0.32,0.1 0.1,0.07 0.22,0.14 0.36,0.22 0.13,0.08 0.28,0.15 0.46,0.22 0.17,0.06 0.38,0.1 0.61,0.1 0.32,0 0.57,-0.08 0.75,-0.22 0.17,-0.14 0.26,-0.36 0.26,-0.66 0,-0.18 -0.04,-0.33 -0.14,-0.44 -0.1,-0.11 -0.23,-0.2 -0.38,-0.28 -0.16,-0.07 -0.34,-0.13 -0.55,-0.19 -0.2,-0.05 -0.4,-0.11 -0.61,-0.18 -0.22,-0.07 -0.42,-0.15 -0.63,-0.25 -0.2,-0.1 -0.38,-0.23 -0.53,-0.39 -0.16,-0.17 -0.29,-0.37 -0.39,-0.61 -0.09,-0.24 -0.14,-0.54 -0.14,-0.89 0,-0.29 0.05,-0.57 0.17,-0.84 0.11,-0.27 0.28,-0.51 0.5,-0.72 0.23,-0.21 0.5,-0.38 0.82,-0.51 0.33,-0.13 0.69,-0.19 1.11,-0.19 0.23,0 0.46,0.02 0.68,0.05 0.22,0.04 0.43,0.1 0.63,0.17 0.2,0.07 0.38,0.16 0.56,0.26 0.17,0.1 0.32,0.21 0.46,0.34l-0.44 0.81zm8.49 -1.55l0 1.36 -3.11 0 0 1.77 2.38 0 0 1.3 -2.38 0 0 1.81 3.11 0 0 1.36 -4.88 0 0 -7.6 4.88 0zm2.57 0l1.41 0c0.16,0 0.28,0.04 0.38,0.11 0.1,0.07 0.17,0.16 0.21,0.27l1.47 4.09c0.06,0.18 0.13,0.38 0.2,0.58 0.07,0.21 0.13,0.43 0.19,0.67 0.05,-0.24 0.1,-0.46 0.17,-0.67 0.06,-0.2 0.13,-0.4 0.19,-0.58l1.46 -4.09c0.03,-0.09 0.1,-0.18 0.2,-0.26 0.1,-0.08 0.22,-0.12 0.37,-0.12l1.43 0 -3.04 7.6 -1.6 0 -3.04 -7.6zm12.42 7.6l-1.77 0 0 -7.6 1.77 0 0 7.6zm11.09 -3.8c0,0.55 -0.09,1.06 -0.28,1.53 -0.19,0.47 -0.46,0.88 -0.8,1.23 -0.35,0.35 -0.76,0.63 -1.25,0.83 -0.48,0.19 -1.02,0.29 -1.61,0.29 -0.59,0 -1.13,-0.1 -1.61,-0.29 -0.49,-0.2 -0.91,-0.48 -1.25,-0.83 -0.35,-0.35 -0.62,-0.76 -0.8,-1.23 -0.19,-0.47 -0.29,-0.98 -0.29,-1.53 0,-0.55 0.1,-1.06 0.29,-1.53 0.18,-0.48 0.45,-0.89 0.8,-1.24 0.34,-0.34 0.76,-0.62 1.25,-0.81 0.48,-0.2 1.02,-0.3 1.61,-0.3 0.59,0 1.13,0.1 1.61,0.3 0.49,0.2 0.9,0.47 1.25,0.82 0.34,0.35 0.61,0.76 0.8,1.23 0.19,0.47 0.28,0.98 0.28,1.53zm-1.8 0c0,-0.37 -0.05,-0.71 -0.15,-1.01 -0.1,-0.3 -0.24,-0.56 -0.42,-0.77 -0.18,-0.2 -0.4,-0.36 -0.67,-0.48 -0.26,-0.11 -0.56,-0.16 -0.9,-0.16 -0.34,0 -0.64,0.05 -0.91,0.16 -0.26,0.12 -0.49,0.28 -0.67,0.48 -0.18,0.21 -0.32,0.47 -0.42,0.77 -0.1,0.3 -0.15,0.64 -0.15,1.01 0,0.38 0.05,0.72 0.15,1.02 0.1,0.3 0.24,0.55 0.42,0.76 0.18,0.21 0.41,0.37 0.67,0.48 0.27,0.11 0.57,0.16 0.91,0.16 0.34,0 0.64,-0.05 0.9,-0.16 0.27,-0.11 0.49,-0.27 0.67,-0.48 0.18,-0.21 0.32,-0.46 0.42,-0.76 0.1,-0.3 0.15,-0.64 0.15,-1.02z"/>
  <path class="fil2" d="M82.5 18.22l-0.88 0c-0.1,0 -0.18,-0.02 -0.24,-0.07 -0.07,-0.05 -0.11,-0.11 -0.14,-0.19l-0.46 -1.24 -2.53 0 -0.46 1.24c-0.02,0.07 -0.07,0.13 -0.13,0.18 -0.07,0.06 -0.15,0.08 -0.25,0.08l-0.88 0 2.4 -6.12 1.17 0 2.4 6.12zm-3.96 -2.3l1.95 0 -0.74 -2.04c-0.04,-0.09 -0.07,-0.2 -0.12,-0.32 -0.04,-0.12 -0.08,-0.26 -0.12,-0.4 -0.04,0.14 -0.07,0.28 -0.11,0.4 -0.04,0.13 -0.08,0.23 -0.12,0.33l-0.74 2.03zm5.77 -0.09l0 2.39 -1.14 0 0 -6.13 1.87 0c0.41,0 0.77,0.05 1.07,0.13 0.3,0.09 0.54,0.21 0.73,0.36 0.19,0.16 0.33,0.34 0.42,0.56 0.09,0.22 0.13,0.46 0.13,0.72 0,0.2 -0.02,0.4 -0.09,0.58 -0.06,0.18 -0.14,0.35 -0.26,0.5 -0.11,0.15 -0.25,0.28 -0.42,0.4 -0.17,0.11 -0.36,0.2 -0.58,0.27 0.15,0.08 0.27,0.19 0.38,0.35l1.53 2.26 -1.03 0c-0.09,0 -0.18,-0.02 -0.25,-0.06 -0.07,-0.04 -0.12,-0.1 -0.17,-0.17l-1.29 -1.96c-0.05,-0.07 -0.1,-0.13 -0.16,-0.16 -0.06,-0.03 -0.14,-0.04 -0.26,-0.04l-0.48 0zm0 -0.83l0.71 0c0.21,0 0.4,-0.02 0.56,-0.08 0.16,-0.05 0.29,-0.12 0.39,-0.22 0.11,-0.09 0.18,-0.2 0.24,-0.33 0.05,-0.13 0.07,-0.28 0.07,-0.43 0,-0.31 -0.1,-0.55 -0.31,-0.72 -0.2,-0.16 -0.51,-0.25 -0.93,-0.25l-0.73 0 0 2.03zm8.44 -2.91l0 0.94 -1.84 0 0 5.19 -1.14 0 0 -5.19 -1.85 0 0 -0.94 4.83 0zm-0.34 5.55c0,-0.08 0.01,-0.17 0.05,-0.25 0.03,-0.07 0.07,-0.14 0.13,-0.2 0.06,-0.06 0.13,-0.1 0.21,-0.14 0.07,-0.03 0.16,-0.05 0.25,-0.05 0.09,0 0.17,0.02 0.25,0.05 0.08,0.04 0.15,0.08 0.2,0.14 0.06,0.06 0.1,0.13 0.14,0.2 0.03,0.08 0.05,0.17 0.05,0.25 0,0.1 -0.02,0.18 -0.05,0.26 -0.04,0.08 -0.08,0.14 -0.14,0.2 -0.05,0.06 -0.12,0.1 -0.2,0.13 -0.08,0.03 -0.16,0.05 -0.25,0.05 -0.09,0 -0.18,-0.02 -0.25,-0.05 -0.08,-0.03 -0.15,-0.07 -0.21,-0.13 -0.06,-0.06 -0.1,-0.12 -0.13,-0.2 -0.04,-0.08 -0.05,-0.16 -0.05,-0.26zm10.64 0.58l-1.14 0 0 -2.67 -2.87 0 0 2.67 -1.15 0 0 -6.12 1.15 0 0 2.63 2.87 0 0 -2.63 1.14 0 0 6.12zm2.52 0l-1.14 0 0 -6.12 1.14 0 0 6.12zm4.66 -5c-0.03,0.06 -0.07,0.1 -0.11,0.13 -0.04,0.03 -0.09,0.04 -0.15,0.04 -0.05,0 -0.12,-0.03 -0.19,-0.07 -0.07,-0.04 -0.15,-0.09 -0.25,-0.14 -0.09,-0.06 -0.2,-0.11 -0.33,-0.15 -0.13,-0.04 -0.28,-0.07 -0.46,-0.07 -0.16,0 -0.29,0.02 -0.41,0.06 -0.12,0.04 -0.22,0.09 -0.3,0.16 -0.08,0.07 -0.14,0.15 -0.18,0.24 -0.04,0.1 -0.06,0.2 -0.06,0.32 0,0.14 0.05,0.26 0.13,0.35 0.08,0.1 0.18,0.18 0.31,0.25 0.14,0.07 0.29,0.13 0.46,0.18 0.17,0.06 0.34,0.11 0.52,0.17 0.17,0.06 0.35,0.13 0.51,0.21 0.17,0.08 0.32,0.19 0.46,0.31 0.13,0.12 0.24,0.27 0.32,0.45 0.08,0.18 0.12,0.39 0.12,0.65 0,0.27 -0.05,0.53 -0.14,0.77 -0.1,0.24 -0.24,0.45 -0.42,0.63 -0.18,0.18 -0.4,0.32 -0.67,0.43 -0.26,0.1 -0.56,0.15 -0.9,0.15 -0.19,0 -0.38,-0.02 -0.57,-0.06 -0.19,-0.04 -0.37,-0.09 -0.55,-0.16 -0.17,-0.07 -0.33,-0.15 -0.48,-0.25 -0.15,-0.1 -0.29,-0.21 -0.41,-0.33l0.33 -0.55c0.03,-0.04 0.07,-0.07 0.11,-0.1 0.05,-0.03 0.1,-0.04 0.15,-0.04 0.07,0 0.15,0.03 0.23,0.09 0.08,0.05 0.18,0.12 0.29,0.19 0.11,0.07 0.24,0.14 0.39,0.19 0.15,0.06 0.33,0.09 0.55,0.09 0.32,0 0.57,-0.08 0.75,-0.23 0.18,-0.16 0.27,-0.38 0.27,-0.66 0,-0.17 -0.04,-0.3 -0.12,-0.4 -0.08,-0.1 -0.19,-0.19 -0.32,-0.25 -0.14,-0.07 -0.29,-0.13 -0.46,-0.18 -0.17,-0.05 -0.34,-0.1 -0.51,-0.16 -0.18,-0.05 -0.35,-0.12 -0.52,-0.2 -0.17,-0.08 -0.32,-0.18 -0.45,-0.31 -0.13,-0.13 -0.24,-0.29 -0.32,-0.48 -0.08,-0.19 -0.12,-0.42 -0.12,-0.7 0,-0.22 0.04,-0.44 0.13,-0.65 0.09,-0.21 0.22,-0.4 0.39,-0.56 0.17,-0.17 0.38,-0.3 0.63,-0.4 0.25,-0.1 0.53,-0.15 0.85,-0.15 0.36,0 0.69,0.06 1,0.17 0.3,0.12 0.56,0.28 0.78,0.48l-0.28 0.54zm5.57 -1.13l0 0.94 -1.84 0 0 5.19 -1.14 0 0 -5.19 -1.85 0 0 -0.94 4.83 0zm6.27 3.07c0,0.45 -0.08,0.86 -0.23,1.25 -0.15,0.38 -0.36,0.71 -0.63,0.99 -0.27,0.28 -0.59,0.5 -0.98,0.65 -0.38,0.16 -0.8,0.24 -1.26,0.24 -0.46,0 -0.89,-0.08 -1.27,-0.24 -0.38,-0.15 -0.71,-0.37 -0.98,-0.65 -0.27,-0.28 -0.48,-0.61 -0.63,-0.99 -0.15,-0.39 -0.23,-0.8 -0.23,-1.25 0,-0.45 0.08,-0.86 0.23,-1.25 0.15,-0.38 0.36,-0.71 0.63,-0.99 0.27,-0.28 0.6,-0.5 0.98,-0.65 0.38,-0.16 0.81,-0.24 1.27,-0.24 0.46,0 0.88,0.08 1.26,0.24 0.39,0.16 0.71,0.38 0.98,0.65 0.27,0.28 0.48,0.61 0.63,0.99 0.15,0.39 0.23,0.8 0.23,1.25zm-1.17 0c0,-0.33 -0.04,-0.63 -0.13,-0.9 -0.09,-0.26 -0.22,-0.49 -0.39,-0.68 -0.16,-0.18 -0.37,-0.33 -0.6,-0.42 -0.24,-0.1 -0.51,-0.15 -0.81,-0.15 -0.3,0 -0.57,0.05 -0.81,0.15 -0.24,0.09 -0.44,0.24 -0.61,0.42 -0.17,0.19 -0.3,0.42 -0.39,0.68 -0.09,0.27 -0.13,0.57 -0.13,0.9 0,0.34 0.04,0.64 0.13,0.91 0.09,0.26 0.22,0.49 0.39,0.67 0.17,0.19 0.37,0.33 0.61,0.43 0.24,0.1 0.51,0.15 0.81,0.15 0.3,0 0.57,-0.05 0.81,-0.15 0.23,-0.1 0.44,-0.24 0.6,-0.43 0.17,-0.18 0.3,-0.41 0.39,-0.67 0.09,-0.27 0.13,-0.57 0.13,-0.91zm3.24 0.67l0 2.39 -1.14 0 0 -6.13 1.87 0c0.42,0 0.78,0.05 1.07,0.13 0.3,0.09 0.55,0.21 0.74,0.36 0.19,0.16 0.33,0.34 0.42,0.56 0.08,0.22 0.13,0.46 0.13,0.72 0,0.2 -0.03,0.4 -0.09,0.58 -0.06,0.18 -0.15,0.35 -0.26,0.5 -0.12,0.15 -0.26,0.28 -0.43,0.4 -0.17,0.11 -0.36,0.2 -0.57,0.27 0.14,0.08 0.27,0.19 0.37,0.35l1.53 2.26 -1.02 0c-0.1,0 -0.18,-0.02 -0.25,-0.06 -0.07,-0.04 -0.13,-0.1 -0.18,-0.17l-1.29 -1.96c-0.04,-0.07 -0.1,-0.13 -0.15,-0.16 -0.06,-0.03 -0.15,-0.04 -0.26,-0.04l-0.49 0zm0 -0.83l0.71 0c0.22,0 0.41,-0.02 0.56,-0.08 0.16,-0.05 0.29,-0.12 0.4,-0.22 0.1,-0.09 0.18,-0.2 0.23,-0.33 0.05,-0.13 0.07,-0.28 0.07,-0.43 0,-0.31 -0.1,-0.55 -0.3,-0.72 -0.21,-0.16 -0.52,-0.25 -0.94,-0.25l-0.73 0 0 2.03zm7.09 0.84l0 2.38 -1.14 0 0 -2.38 -2.23 -3.74 1.01 0c0.09,0 0.17,0.02 0.23,0.07 0.06,0.05 0.11,0.11 0.15,0.19l1.12 2.04c0.06,0.12 0.12,0.24 0.17,0.34 0.05,0.11 0.09,0.22 0.13,0.32 0.04,-0.1 0.08,-0.21 0.13,-0.32 0.04,-0.11 0.1,-0.22 0.16,-0.34l1.12 -2.04c0.03,-0.07 0.07,-0.12 0.14,-0.18 0.06,-0.05 0.14,-0.08 0.23,-0.08l1.01 0 -2.23 3.74zm1.81 1.8c0,-0.08 0.01,-0.17 0.04,-0.25 0.04,-0.07 0.08,-0.14 0.14,-0.2 0.06,-0.06 0.13,-0.1 0.21,-0.14 0.07,-0.03 0.16,-0.05 0.25,-0.05 0.09,0 0.17,0.02 0.25,0.05 0.08,0.04 0.15,0.08 0.2,0.14 0.06,0.06 0.1,0.13 0.14,0.2 0.03,0.08 0.05,0.17 0.05,0.25 0,0.1 -0.02,0.18 -0.05,0.26 -0.04,0.08 -0.08,0.14 -0.14,0.2 -0.05,0.06 -0.12,0.1 -0.2,0.13 -0.08,0.03 -0.16,0.05 -0.25,0.05 -0.09,0 -0.18,-0.02 -0.25,-0.05 -0.08,-0.03 -0.15,-0.07 -0.21,-0.13 -0.06,-0.06 -0.1,-0.12 -0.14,-0.2 -0.03,-0.08 -0.04,-0.16 -0.04,-0.26z"/>
 </g>
</svg>
