<svg width="59" height="54" viewBox="0 0 59 54" fill="none" xmlns="http://www.w3.org/2000/svg">
<path fill-rule="evenodd" clip-rule="evenodd" d="M43.5339 1.27393C44.5185 0.167515 46.2085 0.0733586 47.3086 1.06362C54.414 7.45957 58.8919 16.7629 58.8919 27.1145C58.8919 40.4782 48.1204 51.3115 34.8329 51.3115C21.5455 51.3115 10.774 40.4782 10.774 27.1145C10.774 19.6903 16.7582 13.6718 24.1401 13.6718C31.5218 13.6718 37.5062 19.6903 37.5062 27.1145C37.5062 28.5993 36.3093 29.8031 34.8329 29.8031C33.3566 29.8031 32.1597 28.5993 32.1597 27.1145C32.1597 22.66 28.5691 19.0489 24.1401 19.0489C19.7109 19.0489 16.1204 22.66 16.1204 27.1145C16.1204 37.5085 24.4983 45.9344 34.8329 45.9344C45.1676 45.9344 53.5455 37.5085 53.5455 27.1145C53.5455 18.3559 49.7631 10.4893 43.743 5.07029C42.6429 4.08003 42.5493 2.38034 43.5339 1.27393Z" fill="black"/>
<path fill-rule="evenodd" clip-rule="evenodd" d="M0.0810852 27.1144C0.0810852 13.7508 10.8526 2.91744 24.1401 2.91744C37.4275 2.91744 48.199 13.7508 48.199 27.1144C48.199 34.5385 42.2147 40.5571 34.8329 40.5571C27.4511 40.5571 21.4668 34.5385 21.4668 27.1144C21.4668 25.6295 22.6637 24.4258 24.1401 24.4258C25.6164 24.4258 26.8133 25.6295 26.8133 27.1144C26.8133 31.5688 30.4039 35.18 34.8329 35.18C39.262 35.18 42.8526 31.5688 42.8526 27.1144C42.8526 16.7205 34.4748 8.29454 24.1401 8.29454C13.8054 8.29454 5.42752 16.7205 5.42752 27.1144C5.42752 35.9471 9.27416 43.8727 15.3833 49.2956C16.4902 50.2782 16.5955 51.9772 15.6186 53.0904C14.6416 54.2037 12.9523 54.3096 11.8454 53.3271C4.63515 46.9268 0.0810852 37.5538 0.0810852 27.1144Z" fill="#F56565"/>
</svg>
