<svg width="108" height="65" viewBox="0 0 108 65" fill="none" xmlns="http://www.w3.org/2000/svg">
<path d="M25.3049 16.7933H45.5319V18.3932H27.159V30.435H44.4363V32.0349H27.159V45.2556H45.7426V46.8555H25.3049V16.7933ZM47.344 16.7933H49.4931L59.0167 30.0139L68.7509 16.7933L81.9911 0L60.2387 31.4033L71.4479 46.8555H69.2145L59.0167 32.7928L48.7767 46.8555H46.5854L57.8789 31.4033L47.344 16.7933ZM72.2485 18.3932V16.7933H95.2989V18.3932H84.6797V46.8555H82.8256V18.3932H72.2485Z" fill="black"/>
<path d="M0 16.7932H2.31768L34.2772 64.3878L21.0699 46.8555L1.93843 19.0669L1.85415 46.8555H0V16.7932Z" fill="black"/>
<path d="M95.1121 44.7727C95.4955 44.7727 95.7751 44.4806 95.7751 44.1031C95.7751 43.7256 95.4955 43.4335 95.1121 43.4335C94.7333 43.4335 94.4492 43.7256 94.4492 44.1031C94.4492 44.4806 94.7333 44.7727 95.1121 44.7727ZM96.9341 43.0111C96.9341 44.1256 97.7413 44.8536 98.9183 44.8536C100.172 44.8536 100.93 44.1031 100.93 42.7999V38.2116H99.9195V42.7954C99.9195 43.5189 99.5542 43.9054 98.9093 43.9054C98.3321 43.9054 97.9397 43.5459 97.9262 43.0111H96.9341ZM102.251 42.9527C102.323 44.1121 103.293 44.8536 104.736 44.8536C106.278 44.8536 107.243 44.0761 107.243 42.8358C107.243 41.8607 106.693 41.3214 105.358 41.0113L104.641 40.836C103.793 40.6383 103.451 40.3732 103.451 39.9103C103.451 39.3261 103.983 38.9441 104.781 38.9441C105.539 38.9441 106.062 39.3171 106.156 39.9148H107.14C107.081 38.8228 106.116 38.0543 104.794 38.0543C103.374 38.0543 102.427 38.8228 102.427 39.9777C102.427 40.9304 102.964 41.4966 104.141 41.7708L104.979 41.973C105.841 42.1752 106.22 42.4718 106.22 42.9662C106.22 43.5414 105.624 43.9593 104.813 43.9593C103.942 43.9593 103.338 43.5683 103.252 42.9527H102.251Z" fill="black"/>
</svg>
