<svg width="383" height="209" viewBox="0 0 383 209" fill="none" xmlns="http://www.w3.org/2000/svg">
<path d="M0 0H383V208.238H0V0Z" fill="#EEEEEE"/>
<g clip-path="url(#clip0_2036_322)">
<path fill-rule="evenodd" clip-rule="evenodd" d="M162.871 128.348C162.871 127.957 175.977 115.48 176.763 114.307L184.269 121.738C185.682 123.15 185.787 123.718 187.966 123.718C189.557 123.718 191.251 121.554 192.634 120.17C193.755 119.05 204.54 108.414 204.996 107.734C205.75 108.24 217.235 119.899 219.149 121.813C221.627 124.291 221.128 122.744 221.128 128.348C221.128 130.77 218.77 133.128 216.348 133.128H167.651C165.224 133.128 162.871 130.75 162.871 128.348ZM187.668 115.502L180.162 108.07C178.75 106.659 178.644 106.091 176.464 106.091C174.892 106.091 173.576 107.86 172.693 108.743C171.41 110.026 163.543 118.039 162.871 118.489V82.1907C162.871 79.5551 162.649 78.8212 163.734 77.0787C164.394 76.0181 165.988 74.8708 167.651 74.8708H216.348C217.791 74.8708 219.318 75.8436 219.939 76.6582C221.004 78.0546 221.13 78.5793 221.128 80.9954V114.157C220.426 113.687 209.47 102.595 207.722 100.825C204.551 97.6125 202.425 100.82 200.253 102.992C199.141 104.104 188.334 115.055 187.668 115.502ZM156 79.502V128.498C156 132.737 159.192 137.257 162.826 138.851C164.078 139.4 165.782 140 167.502 140H216.498C218.231 140 219.782 139.43 221.068 138.895C224.738 137.363 228 132.772 228 128.498V79.502C228 77.7677 227.43 76.2182 226.895 74.931C225.363 71.2624 220.772 68 216.498 68H167.502C161.598 68 156 73.5826 156 79.502Z" fill="#DADADA"/>
<path fill-rule="evenodd" clip-rule="evenodd" d="M186.174 96.5305C184.198 96.5305 183.313 96.5836 181.652 94.9279C178.719 92.0044 180.288 86.0748 185.726 86.0748C188.541 86.0748 190.512 88.4838 190.773 91.0459C190.832 91.6257 190.591 92.6608 190.419 93.1579C189.823 94.883 187.891 96.5305 186.174 96.5305ZM173.328 91.1531C173.328 93.0609 173.743 94.5849 174.308 95.9987C175.861 99.8889 180.16 103.402 184.83 103.402C187.174 103.402 188.41 103.29 190.504 102.355C192.385 101.516 193.977 100.161 195.204 98.5404C197.88 95.0055 198.316 89.7812 196.336 85.9206C195.616 84.5171 194.903 83.6852 193.831 82.6011C188.522 77.2308 179.466 78.5936 175.595 84.3089C175.137 84.9836 174.889 85.497 174.522 86.2238C173.915 87.4263 173.328 89.3555 173.328 91.1531Z" fill="#DADADA"/>
</g>
<defs>
<clipPath id="clip0_2036_322">
<rect width="72" height="72" fill="white" transform="translate(156 68)"/>
</clipPath>
</defs>
</svg>
