<svg width="63" height="38" viewBox="0 0 63 38" fill="none" xmlns="http://www.w3.org/2000/svg">
<path d="M31.3243 0.75676C23.1367 0.75676 18.0197 4.88898 15.9726 13.1526C19.0432 9.02042 22.6253 7.47142 26.7187 8.50409C29.0545 9.0933 30.7239 10.8043 32.5721 12.6976C35.5821 15.7816 39.0658 19.351 46.6761 19.351C54.8629 19.351 59.9807 15.2187 62.027 6.95431C58.9571 11.0865 55.3751 12.6363 51.2809 11.6036C48.9458 11.0144 47.2765 9.3034 45.4283 7.41017C42.4183 4.32613 38.9338 0.75676 31.3243 0.75676V0.75676ZM15.9726 19.351C7.78571 19.351 2.66795 23.4832 0.621613 31.7476C3.6915 27.6154 7.27355 26.0656 11.3678 27.0991C13.7028 27.6891 15.3721 29.3993 17.2203 31.2918C20.2303 34.3758 23.7149 37.9459 31.3243 37.9459C39.512 37.9459 44.629 33.8137 46.6761 25.5493C43.6054 29.6815 40.0234 31.2313 35.9299 30.1978C33.5941 29.6094 31.9248 27.8976 30.0766 26.0052C27.0666 22.9211 23.5828 19.351 15.9726 19.351V19.351Z" fill="#06B6D4"/>
</svg>
