<svg width="54" height="54" viewBox="0 0 54 54" fill="none" xmlns="http://www.w3.org/2000/svg">
<path d="M0.24324 0H53.8649V53.6216H0.24324V0Z" fill="#017ACB"/>
<path d="M25.99 19.8568H28.5622V24.2973H21.6081V44.0535L21.4238 44.1038C21.1725 44.1708 17.863 44.1708 17.1508 44.0954L16.5811 44.0451V24.2973H9.62703V19.8568L11.8305 19.8316C13.037 19.8149 16.137 19.8149 18.7176 19.8316C21.2981 19.8484 24.5657 19.8568 25.99 19.8568V19.8568ZM45.6206 41.9589C44.5984 43.0397 43.5009 43.643 41.6744 44.1373C40.8784 44.3551 40.7444 44.3635 38.9514 44.3551C37.1584 44.3468 37.016 44.3468 36.1446 44.1205C33.8909 43.5424 32.0727 42.4113 30.8327 40.8111C30.4808 40.3586 29.9027 39.4203 29.9027 39.303C29.9027 39.2695 29.9865 39.1941 30.0954 39.1438C30.2044 39.0935 30.4306 38.9511 30.6149 38.8422C30.7992 38.7332 31.1344 38.5322 31.3606 38.4149C31.5868 38.2976 32.2403 37.9122 32.81 37.5686C33.3798 37.2251 33.8992 36.9486 33.9579 36.9486C34.0165 36.9486 34.1254 37.0659 34.2092 37.2084C34.7119 38.0546 35.8849 39.1354 36.7144 39.5041C37.2255 39.7219 38.3565 39.9649 38.9011 39.9649C39.4038 39.9649 40.3255 39.747 40.8198 39.5208C41.3476 39.2778 41.6157 39.0349 41.9341 38.5489C42.1519 38.2054 42.1771 38.1132 42.1687 37.4597C42.1687 36.8565 42.1352 36.6889 41.9676 36.4124C41.4984 35.6416 40.8617 35.2395 38.2811 34.1C35.6168 32.9186 34.4187 32.2149 33.4468 31.2681C32.7263 30.5643 32.5838 30.3716 32.1314 29.4919C31.5449 28.3608 31.4695 27.9922 31.4611 26.3081C31.4527 25.1268 31.4779 24.7413 31.6035 24.3392C31.7795 23.7359 32.3492 22.5713 32.609 22.2781C33.1452 21.6497 33.3379 21.457 33.7149 21.147C34.8544 20.2086 36.6306 19.5886 38.3314 19.53C38.5241 19.53 39.1609 19.5635 39.7557 19.6054C41.4649 19.7478 42.6295 20.1668 43.7522 21.0632C44.5984 21.7335 45.8803 23.3086 45.7547 23.5181C45.6709 23.6438 42.3279 25.8724 42.1101 25.9395C41.976 25.9814 41.8838 25.9311 41.6995 25.7132C40.5601 24.3476 40.0992 24.0543 38.9933 23.9873C38.2057 23.937 37.7868 24.0292 37.259 24.3811C36.706 24.7497 36.4379 25.3111 36.4379 26.0903C36.4463 27.2297 36.8819 27.7659 38.4906 28.5619C39.5295 29.073 40.4176 29.4919 40.4846 29.4919C40.5852 29.4919 42.7384 30.5643 43.2998 30.8995C45.9138 32.4327 46.9779 34.0078 47.2544 36.7224C47.4555 38.7668 46.8774 40.6351 45.6206 41.9589V41.9589Z" fill="white"/>
</svg>
